<?xml version="1.0" encoding="UTF-8" standalone="no" ?>
<!DOCTYPE svg PUBLIC "-//W3C//DTD SVG 1.1//EN" "http://www.w3.org/Graphics/SVG/1.1/DTD/svg11.dtd">
<svg xmlns="http://www.w3.org/2000/svg" xmlns:xlink="http://www.w3.org/1999/xlink" version="1.1" width="500" height="500" viewBox="0 0 500 500" xml:space="preserve">
<desc>Created with Fabric.js 3.6.3</desc>
<defs>
</defs>
<g transform="matrix(1,0,0,1,250.99715973415596,289.5431344875002)" style=""  ><path fill="#374140" opacity="1" d="M-155.73-10.54Q-155.66-10.54-155.66-10.33Q-155.66-10.13-155.73-10.13L-155.73-10.13Q-156.95-10.13-158.20-9.23Q-159.46-8.33-160.44-6.77L-160.44-6.77L-164.98 0.21L-164.98 7.90Q-164.98 8.95-164.78 9.43Q-164.57 9.90-163.98 10.07Q-163.39 10.24-162.10 10.24L-162.10 10.24Q-162.00 10.24-162.00 10.44Q-162.00 10.65-162.10 10.65L-162.10 10.65Q-163.15 10.65-163.73 10.61L-163.73 10.61L-166.10 10.58L-168.44 10.61Q-169.05 10.65-170.10 10.65L-170.10 10.65Q-170.20 10.65-170.20 10.44Q-170.20 10.24-170.10 10.24L-170.10 10.24Q-168.81 10.24-168.22 10.07Q-167.63 9.90-167.40 9.41Q-167.18 8.92-167.18 7.90L-167.18 7.90L-167.18 0.75L-172.81-7.49Q-173.76-8.98-174.61-9.55Q-175.45-10.13-176.57-10.13L-176.57-10.13Q-176.67-10.13-176.67-10.33Q-176.67-10.54-176.57-10.54L-176.57-10.54Q-176.17-10.54-175.35-10.47L-175.35-10.47L-174.17-10.43Q-173.01-10.43-171.25-10.50L-171.25-10.50L-169.42-10.54Q-169.35-10.54-169.35-10.33Q-169.35-10.13-169.42-10.13L-169.42-10.13Q-171.18-10.13-171.18-9.42L-171.18-9.42Q-171.18-9.04-170.84-8.57L-170.84-8.57L-165.39-0.57L-161.25-6.91Q-160.51-8.10-160.51-8.91L-160.51-8.91Q-160.51-10.13-162.34-10.13L-162.34-10.13Q-162.41-10.13-162.41-10.33Q-162.41-10.54-162.34-10.54L-162.34-10.54L-160.75-10.50Q-159.46-10.43-158.37-10.43L-158.37-10.43Q-157.80-10.43-156.98-10.50L-156.98-10.50L-155.73-10.54Z"/><path fill="#374140" opacity="1" d="M-136.61 5.60Q-136.61 5.53-136.48 5.53L-136.48 5.53Q-136.38 5.53-136.29 5.56Q-136.21 5.60-136.21 5.66L-136.21 5.66Q-136.51 7.80-136.51 10.14L-136.51 10.14Q-136.51 10.41-136.63 10.53Q-136.75 10.65-137.06 10.65L-137.06 10.65L-151.26 10.65Q-151.32 10.65-151.32 10.44Q-151.32 10.24-151.26 10.24L-151.26 10.24Q-149.97 10.24-149.37 10.07Q-148.78 9.90-148.56 9.41Q-148.34 8.92-148.34 7.90L-148.34 7.90L-148.34-7.79Q-148.34-8.81-148.56-9.28Q-148.78-9.76-149.37-9.94Q-149.97-10.13-151.26-10.13L-151.26-10.13Q-151.32-10.13-151.32-10.33Q-151.32-10.54-151.26-10.54L-151.26-10.54L-137.63-10.54Q-137.33-10.54-137.33-10.23L-137.33-10.23L-137.26-6.06Q-137.26-5.96-137.43-5.94Q-137.60-5.93-137.63-6.03L-137.63-6.03Q-137.73-7.82-138.72-8.82Q-139.70-9.82-141.33-9.82L-141.33-9.82L-143.39-9.82Q-144.58-9.82-145.14-9.64Q-145.70-9.45-145.92-8.99Q-146.14-8.54-146.14-7.62L-146.14-7.62L-146.14-0.74L-142.00-0.74Q-140.38-0.74-139.68-1.28Q-138.99-1.83-138.99-3.11L-138.99-3.11Q-138.99-3.18-138.78-3.18Q-138.58-3.18-138.58-3.11L-138.58-3.11L-138.61-0.37Q-138.61 0.61-138.58 1.12L-138.58 1.12L-138.55 2.75Q-138.55 2.82-138.75 2.82Q-138.95 2.82-138.95 2.75L-138.95 2.75Q-138.95 1.26-139.68 0.61Q-140.41-0.03-142.11-0.03L-142.11-0.03L-146.14-0.03L-146.14 7.77Q-146.14 8.71-145.93 9.16Q-145.73 9.60-145.19 9.77Q-144.65 9.93-143.49 9.93L-143.49 9.93L-140.78 9.93Q-139.16 9.93-138.07 8.78Q-136.99 7.63-136.61 5.60L-136.61 5.60Z"/><path fill="#374140" opacity="1" d="M-107.47-10.54Q-107.37-10.54-107.37-10.33Q-107.37-10.13-107.47-10.13L-107.47-10.13Q-108.89-10.13-109.54-9.35Q-110.18-8.57-110.18-6.81L-110.18-6.81L-110.18 11.05Q-110.18 11.12-110.35 11.15Q-110.52 11.19-110.59 11.12L-110.59 11.12L-126.18-7.76L-126.48-8.10L-126.48 6.95Q-126.48 8.71-125.85 9.48Q-125.23 10.24-123.84 10.24L-123.84 10.24Q-123.74 10.24-123.74 10.44Q-123.74 10.65-123.84 10.65L-123.84 10.65Q-124.69 10.65-125.13 10.61L-125.13 10.61L-126.82 10.58L-128.55 10.61Q-129.02 10.65-129.94 10.65L-129.94 10.65Q-130.01 10.65-130.01 10.44Q-130.01 10.24-129.94 10.24L-129.94 10.24Q-128.48 10.24-127.87 9.48Q-127.26 8.71-127.26 6.95L-127.26 6.95L-127.26-8.91Q-128.58-10.13-129.94-10.13L-129.94-10.13Q-130.04-10.13-130.04-10.33Q-130.04-10.54-129.94-10.54L-129.94-10.54L-128.68-10.50Q-128.28-10.47-127.57-10.47L-127.57-10.47Q-126.82-10.47-126.35-10.50Q-125.87-10.54-125.60-10.54L-125.60-10.54Q-125.33-10.54-125.21-10.42Q-125.09-10.30-124.82-9.89L-124.82-9.89Q-124.41-9.28-124.01-8.77L-124.01-8.77L-110.96 7.26L-110.96-6.81Q-110.96-8.57-111.55-9.35Q-112.15-10.13-113.54-10.13L-113.54-10.13Q-113.60-10.13-113.60-10.33Q-113.60-10.54-113.54-10.54L-113.54-10.54L-112.21-10.50Q-111.20-10.43-110.55-10.43L-110.55-10.43Q-109.94-10.43-108.86-10.50L-108.86-10.50L-107.47-10.54Z"/><path fill="#374140" opacity="1" d="M-96.76 7.90Q-96.76 8.92-96.56 9.41Q-96.35 9.90-95.76 10.07Q-95.17 10.24-93.88 10.24L-93.88 10.24Q-93.78 10.24-93.78 10.44Q-93.78 10.65-93.88 10.65L-93.88 10.65Q-94.89 10.65-95.50 10.61L-95.50 10.61L-97.91 10.58L-100.25 10.61Q-100.86 10.65-101.91 10.65L-101.91 10.65Q-102.01 10.65-102.01 10.44Q-102.01 10.24-101.91 10.24L-101.91 10.24Q-100.62 10.24-100.03 10.07Q-99.44 9.90-99.22 9.41Q-99.00 8.92-99.00 7.90L-99.00 7.90L-99.00-7.79Q-99.00-8.81-99.22-9.28Q-99.44-9.76-100.03-9.94Q-100.62-10.13-101.91-10.13L-101.91-10.13Q-102.01-10.13-102.01-10.33Q-102.01-10.54-101.91-10.54L-101.91-10.54L-100.25-10.50Q-98.83-10.43-97.91-10.43L-97.91-10.43Q-96.89-10.43-95.47-10.50L-95.47-10.50L-93.88-10.54Q-93.78-10.54-93.78-10.33Q-93.78-10.13-93.88-10.13L-93.88-10.13Q-95.13-10.13-95.73-9.93Q-96.32-9.72-96.54-9.23Q-96.76-8.74-96.76-7.72L-96.76-7.72L-96.76 7.90Z"/><path fill="#374140" opacity="1" d=""/><path fill="#374140" opacity="1" d="M-54.09-10.54Q-53.99-10.54-53.99-10.33Q-53.99-10.13-54.09-10.13L-54.09-10.13Q-55.51-10.13-56.16-9.35Q-56.80-8.57-56.80-6.81L-56.80-6.81L-56.80 11.05Q-56.80 11.12-56.97 11.15Q-57.14 11.19-57.21 11.12L-57.21 11.12L-72.80-7.76L-73.10-8.10L-73.10 6.95Q-73.10 8.71-72.48 9.48Q-71.85 10.24-70.46 10.24L-70.46 10.24Q-70.36 10.24-70.36 10.44Q-70.36 10.65-70.46 10.65L-70.46 10.65Q-71.31 10.65-71.75 10.61L-71.75 10.61L-73.44 10.58L-75.17 10.61Q-75.64 10.65-76.56 10.65L-76.56 10.65Q-76.63 10.65-76.63 10.44Q-76.63 10.24-76.56 10.24L-76.56 10.24Q-75.10 10.24-74.49 9.48Q-73.88 8.71-73.88 6.95L-73.88 6.95L-73.88-8.91Q-75.20-10.13-76.56-10.13L-76.56-10.13Q-76.66-10.13-76.66-10.33Q-76.66-10.54-76.56-10.54L-76.56-10.54L-75.31-10.50Q-74.90-10.47-74.19-10.47L-74.19-10.47Q-73.44-10.47-72.97-10.50Q-72.49-10.54-72.22-10.54L-72.22-10.54Q-71.95-10.54-71.83-10.42Q-71.71-10.30-71.44-9.89L-71.44-9.89Q-71.04-9.28-70.63-8.77L-70.63-8.77L-57.58 7.26L-57.58-6.81Q-57.58-8.57-58.17-9.35Q-58.77-10.13-60.16-10.13L-60.16-10.13Q-60.22-10.13-60.22-10.33Q-60.22-10.54-60.16-10.54L-60.16-10.54L-58.83-10.50Q-57.82-10.43-57.17-10.43L-57.17-10.43Q-56.56-10.43-55.48-10.50L-55.48-10.50L-54.09-10.54Z"/><path fill="#374140" opacity="1" d="M-40.50-10.91Q-36.74-10.91-34.45-9.38Q-32.16-7.86-31.21-5.47Q-30.26-3.08-30.26-0.33L-30.26-0.33Q-30.26 3.19-31.69 5.77Q-33.11 8.34-35.55 9.70Q-37.99 11.05-40.97 11.05L-40.97 11.05Q-43.52 11.05-45.23 10.10Q-46.94 9.16-47.74 7.78Q-48.53 6.41-48.53 5.12L-48.53 5.12Q-48.53 4.89-48.43 4.80Q-48.33 4.72-48.13 4.72L-48.13 4.72L-33.18 4.65Q-32.77 2.95-32.77 0.89L-32.77 0.89Q-32.77-2.30-33.69-4.89Q-34.60-7.49-36.37-8.98Q-38.13-10.47-40.53-10.47L-40.53-10.47Q-42.80-10.47-44.87-9.21Q-46.94-7.96-47.72-5.66L-47.72-5.66Q-47.75-5.52-47.96-5.55Q-48.16-5.59-48.13-5.69L-48.13-5.69L-46.70-10.98Q-46.67-11.11-46.48-11.09Q-46.30-11.08-46.33-10.94L-46.33-10.94Q-46.36-10.81-46.36-10.57L-46.36-10.57Q-46.36-9.93-45.79-9.93L-45.79-9.93Q-45.69-9.93-45.41-9.99L-45.41-9.99Q-43.96-10.50-42.89-10.70Q-41.82-10.91-40.50-10.91L-40.50-10.91ZM-39.79 10.41Q-37.35 10.41-35.70 9.09Q-34.06 7.77-33.35 5.29L-33.35 5.29L-46.02 5.46Q-45.75 7.70-44.02 9.05Q-42.30 10.41-39.79 10.41L-39.79 10.41Z"/><path fill="#374140" opacity="1" d="M-20.33-6.57Q-20.33-5.25-19.69-4.27Q-19.05-3.28-18.13-2.62Q-17.22-1.96-15.56-0.94L-15.56-0.94Q-13.79 0.11-12.81 0.82Q-11.83 1.53-11.13 2.63Q-10.44 3.73-10.44 5.26L-10.44 5.26Q-10.44 6.88-11.25 8.21Q-12.07 9.53-13.64 10.29Q-15.22 11.05-17.42 11.05L-17.42 11.05Q-20.03 11.05-22.20 9.87L-22.20 9.87Q-22.37 9.77-22.42 9.63Q-22.47 9.49-22.50 9.22L-22.50 9.22L-22.94 4.61Q-22.98 4.48-22.79 4.44Q-22.61 4.41-22.57 4.55L-22.57 4.55Q-22.03 6.99-20.55 8.75Q-19.08 10.51-16.64 10.51L-16.64 10.51Q-14.95 10.51-13.78 9.58Q-12.61 8.65-12.61 6.61L-12.61 6.61Q-12.61 5.09-13.29 3.97Q-13.96 2.85-14.93 2.12Q-15.89 1.39-17.56 0.41L-17.56 0.41Q-19.18-0.57-20.11-1.28Q-21.05-1.99-21.69-3.08Q-22.33-4.16-22.33-5.62L-22.33-5.62Q-22.33-7.32-21.44-8.52Q-20.54-9.72-19.10-10.32Q-17.66-10.91-16.03-10.91L-16.03-10.91Q-14.03-10.91-12.07-10.09L-12.07-10.09Q-11.56-9.93-11.56-9.52L-11.56-9.52L-11.32-5.62Q-11.32-5.49-11.49-5.49Q-11.66-5.49-11.69-5.62L-11.69-5.62Q-11.96-7.38-13.15-8.89Q-14.34-10.40-16.57-10.40L-16.57-10.40Q-18.47-10.40-19.40-9.30Q-20.33-8.20-20.33-6.57L-20.33-6.57Z"/><path fill="#374140" opacity="1" d="M1.32 7.90Q1.32 8.92 1.53 9.41Q1.73 9.90 2.32 10.07Q2.91 10.24 4.20 10.24L4.20 10.24Q4.30 10.24 4.30 10.44Q4.30 10.65 4.20 10.65L4.20 10.65Q3.19 10.65 2.58 10.61L2.58 10.61L0.17 10.58L-2.17 10.61Q-2.78 10.65-3.83 10.65L-3.83 10.65Q-3.93 10.65-3.93 10.44Q-3.93 10.24-3.83 10.24L-3.83 10.24Q-2.54 10.24-1.95 10.07Q-1.36 9.90-1.14 9.41Q-0.92 8.92-0.92 7.90L-0.92 7.90L-0.92-7.79Q-0.92-8.81-1.14-9.28Q-1.36-9.76-1.95-9.94Q-2.54-10.13-3.83-10.13L-3.83-10.13Q-3.93-10.13-3.93-10.33Q-3.93-10.54-3.83-10.54L-3.83-10.54L-2.17-10.50Q-0.75-10.43 0.17-10.43L0.17-10.43Q1.19-10.43 2.61-10.50L2.61-10.50L4.20-10.54Q4.30-10.54 4.30-10.33Q4.30-10.13 4.20-10.13L4.20-10.13Q2.95-10.13 2.36-9.93Q1.76-9.72 1.54-9.23Q1.32-8.74 1.32-7.72L1.32-7.72L1.32 7.90Z"/><path fill="#374140" opacity="1" d="M15.28-7.76L15.28 7.77Q15.28 8.75 15.49 9.19Q15.69 9.63 16.23 9.78Q16.78 9.93 18.00 9.93L18.00 9.93L21.69 9.93Q23.62 9.93 24.77 8.75Q25.93 7.56 26.30 5.46L26.30 5.46Q26.30 5.36 26.49 5.38Q26.67 5.39 26.67 5.50L26.67 5.50Q26.37 8.31 26.37 10.14L26.37 10.14Q26.37 10.41 26.27 10.53Q26.16 10.65 25.86 10.65L25.86 10.65L10.20 10.65Q10.13 10.65 10.13 10.44Q10.13 10.24 10.20 10.24L10.20 10.24Q11.49 10.24 12.08 10.07Q12.68 9.90 12.88 9.41Q13.08 8.92 13.08 7.90L13.08 7.90L13.08-7.79Q13.08-8.81 12.88-9.28Q12.68-9.76 12.08-9.94Q11.49-10.13 10.20-10.13L10.20-10.13Q10.13-10.13 10.13-10.33Q10.13-10.54 10.20-10.54L10.20-10.54L11.86-10.50Q13.29-10.43 14.17-10.43L14.17-10.43Q15.12-10.43 16.54-10.50L16.54-10.50L18.17-10.54Q18.27-10.54 18.27-10.33Q18.27-10.13 18.17-10.13L18.17-10.13Q16.91-10.13 16.32-9.94Q15.73-9.76 15.51-9.26Q15.28-8.77 15.28-7.76L15.28-7.76Z"/><path fill="#374140" opacity="1" d=""/><path fill="#374140" opacity="1" d="M47.01-13.52Q46.30-13.52 45.91-13.91Q45.52-14.30 45.52-14.98L45.52-14.98Q45.52-15.65 45.91-16.03Q46.30-16.40 47.01-16.40L47.01-16.40Q47.68-16.40 48.06-16.03Q48.43-15.65 48.43-14.98L48.43-14.98Q48.43-14.30 48.06-13.91Q47.68-13.52 47.01-13.52L47.01-13.52ZM48.13 7.90Q48.13 8.92 48.33 9.41Q48.53 9.90 49.13 10.07Q49.72 10.24 51.01 10.24L51.01 10.24Q51.11 10.24 51.11 10.44Q51.11 10.65 51.01 10.65L51.01 10.65Q49.99 10.65 49.38 10.61L49.38 10.61L46.97 10.58L44.63 10.61Q44.02 10.65 42.97 10.65L42.97 10.65Q42.87 10.65 42.87 10.44Q42.87 10.24 42.97 10.24L42.97 10.24Q44.26 10.24 44.85 10.07Q45.45 9.90 45.67 9.41Q45.89 8.92 45.89 7.90L45.89 7.90L45.89-7.79Q45.89-8.81 45.67-9.28Q45.45-9.76 44.85-9.94Q44.26-10.13 42.97-10.13L42.97-10.13Q42.87-10.13 42.87-10.33Q42.87-10.54 42.97-10.54L42.97-10.54L44.63-10.50Q46.06-10.43 46.97-10.43L46.97-10.43Q47.99-10.43 49.41-10.50L49.41-10.50L51.01-10.54Q51.11-10.54 51.11-10.33Q51.11-10.13 51.01-10.13L51.01-10.13Q49.75-10.13 49.16-9.93Q48.57-9.72 48.35-9.23Q48.13-8.74 48.13-7.72L48.13-7.72L48.13 7.90Z"/><path fill="#374140" opacity="1" d="M79.68-10.54Q79.78-10.54 79.78-10.33Q79.78-10.13 79.68-10.13L79.68-10.13Q78.25-10.13 77.61-9.35Q76.97-8.57 76.97-6.81L76.97-6.81L76.97 11.05Q76.97 11.12 76.80 11.15Q76.63 11.19 76.56 11.12L76.56 11.12L60.97-7.76L60.66-8.10L60.66 6.95Q60.66 8.71 61.29 9.48Q61.92 10.24 63.31 10.24L63.31 10.24Q63.41 10.24 63.41 10.44Q63.41 10.65 63.31 10.65L63.31 10.65Q62.46 10.65 62.02 10.61L62.02 10.61L60.33 10.58L58.60 10.61Q58.12 10.65 57.21 10.65L57.21 10.65Q57.14 10.65 57.14 10.44Q57.14 10.24 57.21 10.24L57.21 10.24Q58.67 10.24 59.28 9.48Q59.89 8.71 59.89 6.95L59.89 6.95L59.89-8.91Q58.56-10.13 57.21-10.13L57.21-10.13Q57.11-10.13 57.11-10.33Q57.11-10.54 57.21-10.54L57.21-10.54L58.46-10.50Q58.87-10.47 59.58-10.47L59.58-10.47Q60.33-10.47 60.80-10.50Q61.28-10.54 61.55-10.54L61.55-10.54Q61.82-10.54 61.94-10.42Q62.05-10.30 62.33-9.89L62.33-9.89Q62.73-9.28 63.14-8.77L63.14-8.77L76.19 7.26L76.19-6.81Q76.19-8.57 75.59-9.35Q75.00-10.13 73.61-10.13L73.61-10.13Q73.54-10.13 73.54-10.33Q73.54-10.54 73.61-10.54L73.61-10.54L74.93-10.50Q75.95-10.43 76.59-10.43L76.59-10.43Q77.20-10.43 78.29-10.50L78.29-10.50L79.68-10.54Z"/><path fill="#374140" opacity="1" d="M98.45 5.26Q98.45 7.56 96.88 9.16Q95.30 10.75 92.45 11.02L92.45 11.02Q92.12 12.04 92.12 12.58L92.12 12.58Q92.12 13.05 92.40 13.31Q92.69 13.56 93.61 14.10L93.61 14.10Q94.45 14.58 94.95 15.19Q95.44 15.80 95.44 16.71L95.44 16.71Q95.44 17.97 94.54 18.97Q93.64 19.97 91.91 19.97L91.91 19.97Q90.96 19.97 90.35 19.63Q89.74 19.29 89.74 18.68L89.74 18.68Q89.74 18.24 90.05 17.95Q90.35 17.66 90.76 17.66L90.76 17.66Q91.13 17.66 91.34 17.85Q91.54 18.03 91.74 18.41L91.74 18.41Q91.98 18.85 92.23 19.07Q92.49 19.29 93.00 19.29L93.00 19.29Q94.15 19.29 94.15 18.00L94.15 18.00Q94.15 17.12 93.52 16.42Q92.90 15.73 91.23 14.85L91.23 14.85Q90.76 14.61 90.76 14.41L90.76 14.41Q90.76 14.27 90.93 13.83L90.93 13.83Q91.37 12.78 91.98 11.05L91.98 11.05L91.47 11.05Q88.86 11.05 86.69 9.87L86.69 9.87Q86.52 9.77 86.47 9.63Q86.42 9.49 86.39 9.22L86.39 9.22L85.95 4.61Q85.91 4.48 86.10 4.44Q86.29 4.41 86.32 4.55L86.32 4.55Q86.86 6.99 88.34 8.75Q89.81 10.51 92.25 10.51L92.25 10.51Q93.95 10.51 95.12 9.58Q96.28 8.65 96.28 6.61L96.28 6.61Q96.28 5.09 95.61 3.97Q94.93 2.85 93.96 2.12Q93.00 1.39 91.34 0.41L91.34 0.41Q89.71-0.57 88.78-1.28Q87.85-1.99 87.20-3.08Q86.56-4.16 86.56-5.62L86.56-5.62Q86.56-7.32 87.46-8.52Q88.35-9.72 89.79-10.32Q91.23-10.91 92.86-10.91L92.86-10.91Q94.86-10.91 96.83-10.09L96.83-10.09Q97.34-9.93 97.34-9.52L97.34-9.52L97.57-5.62Q97.57-5.49 97.40-5.49Q97.23-5.49 97.20-5.62L97.20-5.62Q96.93-7.38 95.74-8.89Q94.56-10.40 92.32-10.40L92.32-10.40Q90.42-10.40 89.49-9.30Q88.56-8.20 88.56-6.57L88.56-6.57Q88.56-5.25 89.20-4.27Q89.85-3.28 90.76-2.62Q91.68-1.96 93.34-0.94L93.34-0.94Q95.10 0.11 96.08 0.82Q97.06 1.53 97.76 2.63Q98.45 3.73 98.45 5.26L98.45 5.26Z"/><path fill="#374140" opacity="1" d="M127.16 10.24Q127.29 10.24 127.29 10.44Q127.29 10.65 127.16 10.65L127.16 10.65Q126.52 10.65 125.16 10.58L125.16 10.58Q123.80 10.51 123.19 10.51L123.19 10.51Q122.45 10.51 121.30 10.58L121.30 10.58Q120.21 10.65 119.64 10.65L119.64 10.65Q119.50 10.65 119.50 10.44Q119.50 10.24 119.64 10.24L119.64 10.24Q120.89 10.24 121.47 10.00Q122.04 9.77 122.04 9.19L122.04 9.19Q122.04 8.71 121.60 7.73L121.60 7.73L117.70-0.57L111.30-0.57L108.38 6.34Q107.91 7.49 107.91 8.24L107.91 8.24Q107.91 10.24 111.23 10.24L111.23 10.24Q111.40 10.24 111.40 10.44Q111.40 10.65 111.23 10.65L111.23 10.65Q110.62 10.65 109.47 10.58L109.47 10.58Q108.18 10.51 107.23 10.51L107.23 10.51Q106.35 10.51 105.20 10.58L105.20 10.58Q104.18 10.65 103.50 10.65L103.50 10.65Q103.33 10.65 103.33 10.44Q103.33 10.24 103.50 10.24L103.50 10.24Q104.45 10.24 105.11 9.88Q105.77 9.53 106.37 8.63Q106.96 7.73 107.67 6.04L107.67 6.04L114.82-10.84Q114.89-10.94 115.06-10.94Q115.23-10.94 115.26-10.84L115.26-10.84L123.26 6.00Q124.41 8.51 125.23 9.38Q126.04 10.24 127.16 10.24L127.16 10.24ZM114.31-7.72L111.60-1.28L117.36-1.28L114.31-7.72Z"/><path fill="#374140" opacity="1" d="M154.14 10.24Q154.27 10.24 154.27 10.44Q154.27 10.65 154.14 10.65L154.14 10.65Q153.49 10.65 152.14 10.58L152.14 10.58Q150.78 10.51 150.17 10.51L150.17 10.51Q149.43 10.51 148.27 10.58L148.27 10.58Q147.19 10.65 146.61 10.65L146.61 10.65Q146.48 10.65 146.48 10.44Q146.48 10.24 146.61 10.24L146.61 10.24Q147.87 10.24 148.44 10.00Q149.02 9.77 149.02 9.19L149.02 9.19Q149.02 8.71 148.58 7.73L148.58 7.73L144.68-0.57L138.28-0.57L135.36 6.34Q134.89 7.49 134.89 8.24L134.89 8.24Q134.89 10.24 138.21 10.24L138.21 10.24Q138.38 10.24 138.38 10.44Q138.38 10.65 138.21 10.65L138.21 10.65Q137.60 10.65 136.45 10.58L136.45 10.58Q135.16 10.51 134.21 10.51L134.21 10.51Q133.33 10.51 132.18 10.58L132.18 10.58Q131.16 10.65 130.48 10.65L130.48 10.65Q130.31 10.65 130.31 10.44Q130.31 10.24 130.48 10.24L130.48 10.24Q131.43 10.24 132.09 9.88Q132.75 9.53 133.34 8.63Q133.94 7.73 134.65 6.04L134.65 6.04L141.80-10.84Q141.87-10.94 142.04-10.94Q142.21-10.94 142.24-10.84L142.24-10.84L150.24 6.00Q151.39 8.51 152.20 9.38Q153.02 10.24 154.14 10.24L154.14 10.24ZM141.29-7.72L138.58-1.28L144.34-1.28L141.29-7.72Z"/><path fill="#374140" opacity="1" d="M161.46-9.93Q159.32-9.93 158.25-8.84Q157.19-7.76 156.71-5.15L156.71-5.15Q156.71-5.08 156.53-5.08Q156.34-5.08 156.34-5.15L156.34-5.15Q156.47-6.37 156.64-8.33Q156.81-10.30 156.81-11.28L156.81-11.28Q156.81-11.45 157.00-11.45Q157.19-11.45 157.19-11.28L157.19-11.28Q157.19-10.54 159.02-10.54L159.02-10.54Q161.90-10.43 165.83-10.43L165.83-10.43Q167.83-10.43 170.07-10.50L170.07-10.50L172.37-10.54Q173.59-10.54 174.18-10.70Q174.78-10.87 174.95-11.38L174.95-11.38Q174.98-11.52 175.15-11.52Q175.32-11.52 175.32-11.38L175.32-11.38Q175.22-10.40 175.12-8.40Q175.01-6.40 175.01-5.15L175.01-5.15Q175.01-5.08 174.81-5.08Q174.61-5.08 174.61-5.15L174.61-5.15Q174.50-7.79 173.52-8.86Q172.54-9.93 170.27-9.93L170.27-9.93Q168.74-9.93 168.10-9.79Q167.46-9.65 167.22-9.21Q166.98-8.77 166.98-7.72L166.98-7.72L166.98 7.90Q166.98 8.95 167.22 9.43Q167.46 9.90 168.13 10.07Q168.81 10.24 170.27 10.24L170.27 10.24Q170.37 10.24 170.37 10.44Q170.37 10.65 170.27 10.65L170.27 10.65Q169.15 10.65 168.47 10.61L168.47 10.61L165.83 10.58L163.29 10.61Q162.61 10.65 161.42 10.65L161.42 10.65Q161.36 10.65 161.36 10.44Q161.36 10.24 161.42 10.24L161.42 10.24Q162.88 10.24 163.56 10.07Q164.24 9.90 164.49 9.41Q164.74 8.92 164.74 7.90L164.74 7.90L164.74-7.79Q164.74-8.84 164.51-9.26Q164.27-9.69 163.63-9.81Q162.98-9.93 161.46-9.93L161.46-9.93Z"/></g>
<g transform="matrix(1.1650329919713482 0 0 1.1650329919713485 249.37618351607546 195.06198890003532)"  >
<path style="stroke: none; stroke-width: 0; stroke-dasharray: none; stroke-linecap: butt; stroke-dashoffset: 0; stroke-linejoin: miter; stroke-miterlimit: 4; fill: rgb(55,65,64); fill-rule: nonzero; opacity: 1;"  transform=" translate(-51.42857152437788, -1003.0771076252852)" d="m 49.063772 958.70969 c -0.222 0.006 -0.424 0.0286 -0.604 0.0725 c -0.362 0.0878 -0.679 0.29437 -0.797 0.62854 c -0.118 0.3342 -0.04 0.70223 0.169 1.10666 c 0.01 0.0283 0.04 0.0625 0.06 0.0913 c -0.471 0.15135 -0.965 0.31913 -1.458 0.48618 c -0.518 -0.0461 -1.037 -0.093 -1.529 -0.12894 c 0 -0.0316 0.02 -0.0713 0.03 -0.10205 c 0.1 -0.4406 0.1 -0.8178 -0.1 -1.11471 c -0.193 -0.29692 -0.551 -0.42183 -0.924 -0.42173 c -0.744 0 -1.732 0.38404 -2.988 1.02877 c -0.243 0.12491 -0.536 0.30636 -0.797 0.45124 c -0.299 0.006 -0.645 -0.006 -0.919 0.008 c -1.409 0.0698 -2.455 0.2319 -3.1 0.60437 c -0.323 0.18626 -0.569 0.47071 -0.588 0.82464 c -0.01 0.35392 0.165 0.68409 0.472 1.01533 c 0.02 0.0231 0.06 0.049 0.08 0.0725 c -0.41 0.27825 -0.836 0.57887 -1.261 0.87837 c -0.511 0.10168 -1.021 0.20179 -1.504 0.30618 c 0 -0.0327 0 -0.0759 0 -0.10743 c -0.03 -0.45109 -0.139 -0.81182 -0.408 -1.04218 c -0.27 -0.23038 -0.647 -0.25013 -1.005 -0.14505 c -0.715 0.21015 -1.554 0.85664 -2.577 1.82919 c -0.197 0.18851 -0.429 0.44528 -0.639 0.6581 c -0.285 0.0893 -0.62 0.17851 -0.877 0.26862 c -1.334 0.46433 -2.292 0.91389 -2.806 1.45317 c -0.257 0.26962 -0.412 0.61127 -0.331 0.95623 c 0.08 0.34496 0.351 0.60951 0.739 0.84075 c 0.03 0.0167 0.07 0.0319 0.1 0.0483 c -0.315 0.38161 -0.641 0.78875 -0.964 1.19531 c -0.462 0.24176 -0.924 0.48303 -1.359 0.71989 c 0 -0.0306 -0.01 -0.0729 -0.03 -0.10209 c -0.154 -0.42507 -0.364 -0.74128 -0.688 -0.88642 c -0.323 -0.14514 -0.688 -0.0565 -1.001 0.14505 c -0.627 0.4031 -1.249 1.26031 -1.958 2.48194 c -0.136 0.23632 -0.285 0.54565 -0.426 0.8085 c -0.249 0.16654 -0.545 0.34536 -0.768 0.505 c -1.148 0.82123 -1.94 1.52143 -2.282 2.18378 c -0.171 0.33116 -0.226 0.70724 -0.06 1.01534 c 0.176 0.30806 0.51 0.48381 0.948 0.59628 c 0.03 0.008 0.08 0.0115 0.108 0.0188 c -0.194 0.4554 -0.392 0.93875 -0.589 1.42089 c -0.374 0.3614 -0.747 0.7253 -1.097 1.0745 c -0.01 -0.028 -0.04 -0.068 -0.06 -0.094 c -0.267 -0.3646 -0.556 -0.6099 -0.907 -0.6581 c -0.351 -0.048 -0.68 0.1401 -0.923 0.4217 c -0.488 0.5634 -0.844 1.5615 -1.179 2.9332 c -0.06 0.2663 -0.121 0.6068 -0.183 0.8999 c -0.191 0.2293 -0.424 0.4829 -0.593 0.6983 c -0.87 1.1117 -1.435 2.008 -1.5759996 2.7398 c -0.07 0.3659 -0.01 0.7396 0.2389996 0.9858 c 0.254 0.2463 0.625 0.3243 1.077 0.3089 c 0.03 0 0.07 -0.011 0.106 -0.013 c -0.06 0.4907 -0.11 1.0088 -0.163 1.5257 c -0.257 0.4525 -0.514 0.9062 -0.752 1.3403 c -0.03 -0.021 -0.06 -0.053 -0.08 -0.072 c -0.3589996 -0.2745 -0.7049996 -0.426 -1.0549996 -0.3733 c -0.35 0.053 -0.61 0.3244 -0.766 0.6634 c -0.309 0.678 -0.37 1.7348 -0.305 3.1454 c 0.01 0.2732 0.06 0.6155 0.08 0.9133 c -0.12 0.275 -0.272 0.5857 -0.374 0.8407 c -0.522 1.312 -0.808 2.331 -0.737 3.0729 c 0.04 0.37099 0.19 0.71389 0.504 0.87839 c 0.314 0.1644 0.693 0.1339 1.122 -0.01 c 0.03 -0.01 0.07 -0.032 0.1 -0.043 c 0.08 0.4885 0.176 1.0025 0.272 1.5149 c -0.12 0.5061 -0.238 1.0131 -0.344 1.4962 c -0.03 -0.013 -0.06 -0.037 -0.1 -0.048 c -0.421 -0.1624 -0.798 -0.2111 -1.12 -0.062 c -0.32 0.1493 -0.494 0.4826 -0.547 0.8514 c -0.106 0.7378 0.134 1.7698 0.593 3.1052 c 0.09 0.2594 0.227 0.5766 0.333 0.8568 c -0.03 0.2964 -0.09 0.6358 -0.121 0.9079 c -0.131 1.406 -0.121 2.4642 0.156 3.1562 c 0.138 0.3459 0.386 0.6317 0.733 0.701 c 0.347 0.069 0.7 -0.065 1.071 -0.3223 c 0.03 -0.018 0.06 -0.05 0.08 -0.07 c 0.2159996 0.4444 0.4519996 0.9089 0.6859996 1.3726 c 0.03 0.5203 0.06 1.0422 0.09 1.5364 c -0.03 0 -0.08 -0.016 -0.107 -0.019 c -0.451 -0.037 -0.8239996 0.021 -1.0899996 0.2552 c -0.267 0.2338 -0.338 0.6035 -0.285 0.9724 c 0.106 0.7377 0.626 1.6605 1.4419996 2.8123 c 0.158 0.2236 0.38 0.4892 0.561 0.7279 c 0.05 0.295 0.09 0.6368 0.14 0.9052 c 0.269 1.3862 0.578 2.401 1.039 2.9869 c 0.229 0.293 0.546 0.4961 0.899 0.4647 c 0.352 -0.031 0.652 -0.261 0.937 -0.6124 c 0.02 -0.025 0.04 -0.065 0.06 -0.091 c 0.333 0.3654 0.691 0.7441 1.047 1.1228 c 0.173 0.4906 0.346 0.984 0.518 1.4478 c -0.03 0.01 -0.08 0.01 -0.107 0.013 c -0.442 0.091 -0.785 0.2539 -0.974 0.5533 c -0.19 0.2994 -0.153 0.6737 0 1.0127 c 0.309 0.6778 1.066 1.4162 2.174 2.2912 c 0.214 0.1692 0.501 0.3599 0.741 0.5372 c 0.129 0.2713 0.263 0.5911 0.39 0.8354 c 0.648 1.2539 1.232 2.1381 1.838 2.5705 c 0.304 0.2163 0.664 0.3231 0.994 0.1934 c 0.329 -0.1296 0.554 -0.4369 0.727 -0.8541 c 0.01 -0.029 0.01 -0.072 0.03 -0.1021 c 0.423 0.2568 0.873 0.5213 1.322 0.7844 c 0.305 0.4219 0.611 0.8443 0.907 1.2409 c -0.03 0.015 -0.07 0.028 -0.1 0.043 c -0.399 0.2125 -0.684 0.4624 -0.782 0.8032 c -0.1 0.3406 0.04 0.6934 0.287 0.975 c 0.488 0.5631 1.424 1.0575 2.734 1.5848 c 0.254 0.1025 0.585 0.2058 0.866 0.3089 c 0.199 0.2216 0.416 0.4879 0.605 0.6849 c 0.976 1.0202 1.783 1.7061 2.486 1.9501 c 0.352 0.122 0.73 0.1233 1.009 -0.094 c 0.28 -0.2172 0.408 -0.5741 0.457 -1.0234 c 0 -0.031 0 -0.075 0 -0.1074 c 0.477 0.1272 0.983 0.2529 1.487 0.3787 c 0.411 0.3192 0.823 0.6403 1.219 0.9375 c -0.02 0.022 -0.06 0.045 -0.08 0.067 c -0.323 0.3163 -0.524 0.6367 -0.521 0.9911 c 0 0.3544 0.237 0.6528 0.55 0.8542 c 0.627 0.4028 1.664 0.6126 3.069 0.7494 c 0.271 0.026 0.615 0.032 0.912 0.051 c 0.256 0.1579 0.541 0.3547 0.779 0.4916 c 1.224 0.7037 2.191 1.1328 2.935 1.1684 c 0.372 0.018 0.735 -0.089 0.942 -0.376 c 0.207 -0.2875 0.23 -0.6645 0.15 -1.1094 c 0 -0.032 -0.02 -0.072 -0.03 -0.1048 c 0.495 -0.012 1.015 -0.035 1.535 -0.056 c 0.484 0.1902 0.969 0.3826 1.431 0.556 c -0.02 0.028 -0.04 0.061 -0.06 0.089 c -0.221 0.3944 -0.323 0.7592 -0.221 1.0987 c 0.103 0.3393 0.411 0.5585 0.768 0.6634 c 0.715 0.2098 1.769 0.1196 3.154 -0.145 c 0.269 -0.051 0.601 -0.1416 0.892 -0.2069 c 0.289 0.08 0.617 0.1857 0.884 0.2499 c 1.372 0.3303 2.422 0.4709 3.146 0.2954 c 0.362 -0.088 0.679 -0.2944 0.798 -0.6286 c 0.117 -0.3341 0.03 -0.7022 -0.17 -1.1066 c -0.01 -0.028 -0.04 -0.062 -0.06 -0.091 c 0.471 -0.1513 0.966 -0.3191 1.458 -0.4862 c 0.519 0.046 1.037 0.093 1.53 0.129 c 0 0.032 -0.02 0.071 -0.03 0.102 c -0.101 0.4406 -0.1 0.8178 0.1 1.1147 c 0.194 0.297 0.552 0.4219 0.924 0.4217 c 0.745 0 1.732 -0.384 2.988 -1.0287 c 0.244 -0.1249 0.536 -0.3064 0.797 -0.4513 c 0.3 -0.01 0.646 0.01 0.919 -0.01 c 1.409 -0.07 2.455 -0.2318 3.101 -0.6043 c 0.322 -0.1863 0.568 -0.4708 0.587 -0.8246 c 0.01 -0.354 -0.165 -0.6842 -0.472 -1.0154 c -0.02 -0.023 -0.06 -0.049 -0.08 -0.072 c 0.409 -0.2782 0.835 -0.5789 1.261 -0.8784 c 0.51 -0.1017 1.021 -0.2017 1.504 -0.3062 c 0 0.033 0 0.076 0 0.1075 c 0.03 0.4511 0.139 0.8118 0.408 1.0422 c 0.269 0.2303 0.646 0.2501 1.004 0.145 c 0.715 -0.2102 1.554 -0.8566 2.577 -1.8292 c 0.198 -0.1885 0.429 -0.4452 0.639 -0.6581 c 0.286 -0.089 0.62 -0.1785 0.878 -0.2686 c 1.333 -0.4643 2.291 -0.9139 2.806 -1.4532 c 0.256 -0.2696 0.412 -0.6112 0.33 -0.9562 c -0.08 -0.345 -0.351 -0.6122 -0.739 -0.8434 c -0.02 -0.016 -0.07 -0.03 -0.1 -0.046 c 0.314 -0.3813 0.638 -0.7892 0.961 -1.1954 c 0.462 -0.2417 0.923 -0.483 1.358 -0.7198 c 0.01 0.031 0.01 0.073 0.03 0.102 c 0.154 0.4251 0.362 0.7413 0.686 0.8864 c 0.323 0.1452 0.69 0.056 1.003 -0.145 c 0.627 -0.4031 1.25 -1.2603 1.958 -2.4819 c 0.137 -0.2361 0.285 -0.546 0.427 -0.8086 c 0.248 -0.1665 0.544 -0.3453 0.767 -0.5049 c 1.148 -0.8213 1.941 -1.5241 2.282 -2.1865 c 0.171 -0.3312 0.226 -0.7046 0.06 -1.0126 c -0.175 -0.3081 -0.51 -0.4866 -0.948 -0.5991 c -0.03 -0.01 -0.07 -0.01 -0.107 -0.016 c 0.194 -0.4554 0.391 -0.9387 0.588 -1.4209 c 0.373 -0.3609 0.748 -0.7229 1.098 -1.0717 c 0.01 0.027 0.03 0.066 0.06 0.091 c 0.266 0.3645 0.556 0.6099 0.907 0.6581 c 0.351 0.048 0.68 -0.1427 0.923 -0.4244 c 0.488 -0.5634 0.844 -1.5588 1.179 -2.9305 c 0.06 -0.2663 0.121 -0.6068 0.183 -0.8999 c 0.192 -0.2293 0.425 -0.4829 0.593 -0.6983 c 0.871 -1.1117 1.432 -2.0081 1.573 -2.7398 c 0.07 -0.3659 0.02 -0.7396 -0.236 -0.9858 c -0.255 -0.2463 -0.625 -0.3243 -1.076 -0.3089 c -0.03 0 -0.08 0.011 -0.108 0.013 c 0.06 -0.4907 0.111 -1.0088 0.164 -1.5257 c 0.257 -0.4525 0.514 -0.9063 0.752 -1.3404 c 0.02 0.021 0.06 0.053 0.08 0.072 c 0.359 0.2745 0.705 0.4261 1.055 0.3734 c 0.351 -0.053 0.611 -0.3245 0.765 -0.6635 c 0.31 -0.678 0.371 -1.7374 0.306 -3.1481 c -0.01 -0.2734 -0.06 -0.615 -0.08 -0.9132 c 0.12 -0.2741 0.272 -0.5839 0.374 -0.8381 c 0.522 -1.3119 0.809 -2.3309 0.738 -3.0728 c -0.03 -0.371 -0.194 -0.714 -0.507 -0.8784 c -0.314 -0.1645 -0.691 -0.134 -1.12 0.01 c -0.03 0.01 -0.07 0.032 -0.1 0.043 c -0.08 -0.487 -0.18 -0.999 -0.274 -1.5096 c 0.12 -0.5073 0.241 -1.0148 0.347 -1.4988 c 0.03 0.012 0.06 0.034 0.1 0.046 c 0.422 0.1623 0.798 0.2111 1.119 0.062 c 0.322 -0.1493 0.495 -0.4853 0.549 -0.8542 c 0.105 -0.7377 -0.135 -1.7671 -0.594 -3.10239 c -0.09 -0.2593 -0.227 -0.5767 -0.333 -0.8569 c 0.03 -0.2962 0.09 -0.6357 0.12 -0.9079 c 0.132 -1.4059 0.121 -2.4668 -0.155 -3.1588 c -0.138 -0.346 -0.386 -0.629 -0.733 -0.6984 c -0.348 -0.069 -0.7 0.065 -1.072 0.3224 c -0.02 0.018 -0.06 0.05 -0.08 0.07 c -0.217 -0.4444 -0.452 -0.9089 -0.688 -1.3726 c -0.03 -0.5203 -0.06 -1.0422 -0.09 -1.5364 c 0.03 0 0.07 0.016 0.105 0.019 c 0.45 0.037 0.827 -0.021 1.092 -0.2552 c 0.267 -0.2338 0.338 -0.6062 0.285 -0.9751 c -0.106 -0.7376 -0.628 -1.6578 -1.444 -2.8096 c -0.158 -0.2229 -0.378 -0.4874 -0.559 -0.7252 c -0.05 -0.296 -0.09 -0.6387 -0.139 -0.9079 c -0.27 -1.3861 -0.579 -2.401 -1.039 -2.987 c -0.23 -0.2929 -0.547 -0.4961 -0.899 -0.4647 c -0.354 0.031 -0.654 0.2611 -0.938 0.6125 c -0.02 0.025 -0.04 0.065 -0.06 0.091 c -0.334 -0.3664 -0.693 -0.7458 -1.05 -1.1255 c -0.173 -0.4899 -0.347 -0.9819 -0.519 -1.4451 c 0.04 -0.01 0.08 -0.01 0.11 -0.013 c 0.443 -0.091 0.783 -0.2539 0.973 -0.5533 c 0.189 -0.29938 0.154 -0.67643 0 -1.01534 c -0.31 -0.67785 -1.067 -1.41625 -2.175 -2.29124 c -0.215 -0.17001 -0.503 -0.36174 -0.744 -0.53988 c -0.128 -0.2696 -0.263 -0.58718 -0.389 -0.82999 c -0.65 -1.25396 -1.23 -2.13814 -1.837 -2.57059 c -0.302 -0.21623 -0.666 -0.32299 -0.995 -0.19341 c -0.33 0.12959 -0.552 0.43693 -0.725 0.85419 c -0.01 0.0292 -0.02 0.0716 -0.03 0.10207 c -0.423 -0.2574 -0.874 -0.52073 -1.323 -0.78434 c -0.305 -0.42175 -0.61 -0.84463 -0.906 -1.24098 c 0.03 -0.0146 0.07 -0.028 0.1 -0.043 c 0.399 -0.21249 0.683 -0.46242 0.781 -0.80313 c 0.1 -0.34072 -0.04 -0.6935 -0.287 -0.97503 c -0.488 -0.56313 -1.423 -1.05753 -2.733 -1.58482 c -0.253 -0.10226 -0.584 -0.20605 -0.865 -0.30886 c -0.199 -0.2227 -0.417 -0.48986 -0.606 -0.68764 c -0.976 -1.0202 -1.782 -1.70349 -2.486 -1.9474 c -0.352 -0.12199 -0.729 -0.1233 -1.009 0.094 c -0.28 0.21728 -0.408 0.57412 -0.457 1.02338 c 0 0.0314 0 0.0748 0 0.10743 c -0.478 -0.1273 -0.983 -0.25282 -1.488 -0.37872 c -0.41 -0.31934 -0.823 -0.64008 -1.218 -0.93742 c 0.02 -0.0218 0.06 -0.0455 0.08 -0.0672 c 0.322 -0.31621 0.526 -0.63671 0.524 -0.99115 c 0 -0.35441 -0.237 -0.65278 -0.55 -0.85418 c -0.627 -0.40276 -1.665 -0.61255 -3.069 -0.74939 c -0.273 -0.0264 -0.617 -0.0343 -0.916 -0.0537 c -0.254 -0.15746 -0.538 -0.35235 -0.776 -0.48889 c -1.223 -0.70377 -2.19 -1.13276 -2.934 -1.16841 c -0.372 -0.0179 -0.735 0.0887 -0.942 0.37604 c -0.208 0.28738 -0.23 0.66449 -0.151 1.10937 c 0 0.0314 0.02 0.0723 0.03 0.10473 c -0.495 0.0124 -1.017 0.035 -1.537 0.0564 c -0.484 -0.1903 -0.97 -0.38246 -1.433 -0.55599 c 0.01 -0.0282 0.05 -0.0609 0.06 -0.0887 c 0.22 -0.3944 0.322 -0.75921 0.22 -1.0986 c -0.102 -0.33943 -0.41 -0.55858 -0.768 -0.66348 c -0.715 -0.20979 -1.768 -0.11962 -3.155 0.14508 c -0.268 0.0514 -0.602 0.14125 -0.894 0.20681 c -0.288 -0.0793 -0.617 -0.18575 -0.882 -0.24982 c -1.03 -0.24777 -1.876 -0.38711 -2.54 -0.36799 z m 0 0.63391 c 0.502 -0.008 1.238 0.0932 2.108 0.28741 c -0.833 0.21893 -1.729 0.48147 -2.679 0.77898 c -0.03 -0.0544 -0.08 -0.12209 -0.109 -0.17191 c -0.161 -0.32557 -0.168 -0.52702 -0.137 -0.6178 c 0.03 -0.0907 0.107 -0.16608 0.352 -0.22562 c 0.123 -0.0298 0.279 -0.0481 0.465 -0.051 z m 6.18 0.16387 c 0.486 -0.0256 0.864 0.003 1.106 0.0725 c 0.243 0.0712 0.316 0.14687 0.344 0.23907 c 0.03 0.0922 0.01 0.29494 -0.169 0.61239 c -0.03 0.0486 -0.08 0.11369 -0.116 0.16657 c -0.936 -0.34274 -1.818 -0.64679 -2.639 -0.90523 c 0.555 -0.0964 1.059 -0.16362 1.474 -0.18532 z m -11.34 0.44857 c 0.253 -0.00004 0.342 0.0536 0.394 0.13431 c 0.06 0.0807 0.1 0.27926 0.02 0.63391 c -0.02 0.0545 -0.05 0.13271 -0.06 0.1934 c -0.998 -0.0651 -1.93 -0.10705 -2.792 -0.12356 c 1.097 -0.54131 1.98 -0.83795 2.449 -0.83806 z m 8.561 0.0216 c 1.058 0.29649 2.231 0.67071 3.549 1.14966 c -0.107 0.12749 -0.225 0.25969 -0.359 0.40291 c -1.054 0.0681 -2.127 0.14898 -3.233 0.2444 c -1.1 -0.14808 -2.17 -0.27922 -3.221 -0.3975 c -0.127 -0.14958 -0.238 -0.28916 -0.338 -0.42173 c 1.342 -0.41607 2.531 -0.73179 3.602 -0.97774 z m 8.551 0.3868 c 0.468 0.0225 1.332 0.35916 2.401 0.95089 c -0.86 -0.0246 -1.794 -0.0255 -2.79 -0.008 c -0.01 -0.0614 -0.05 -0.14108 -0.06 -0.19611 c -0.06 -0.35809 -0.01 -0.55317 0.04 -0.6312 c 0.06 -0.0781 0.151 -0.12761 0.402 -0.11552 z m -12.8 0.79508 c 0.03 0.037 0.06 0.0803 0.09 0.11818 c -0.108 -0.0115 -0.223 -0.0264 -0.33 -0.0376 c 0.08 -0.0249 0.162 -0.0561 0.239 -0.0806 z m 8.435 0.20145 c 0.08 0.0283 0.16 0.0625 0.237 0.0913 c -0.109 0.006 -0.226 0.0152 -0.336 0.0216 c 0.03 -0.0365 0.07 -0.0771 0.1 -0.11281 z m -15.099 0.0618 c 0.758 0.0164 1.597 0.0612 2.465 0.11549 c -0.06 0.15258 -0.142 0.31353 -0.232 0.48888 c -0.99 0.36213 -1.997 0.74153 -3.031 1.14428 c -1.098 0.16827 -2.162 0.34357 -3.205 0.52646 c -0.164 -0.10728 -0.309 -0.21042 -0.443 -0.30889 c 1.17 -0.77675 2.221 -1.41788 3.179 -1.95546 c 0.419 -0.006 0.8 -0.0207 1.267 -0.0107 z m -2.601 0.043 c -0.737 0.44477 -1.523 0.95015 -2.352 1.50417 c -0.05 -0.044 -0.115 -0.0956 -0.153 -0.13697 c -0.248 -0.26664 -0.311 -0.45722 -0.307 -0.55332 c 0 -0.0962 0.06 -0.19064 0.275 -0.31696 c 0.405 -0.2341 1.316 -0.41651 2.537 -0.49692 z m 5.742 0.11549 c 0.08 0.006 0.169 0.0155 0.251 0.0216 c -0.102 0.0361 -0.21 0.0789 -0.312 0.11549 c 0.02 -0.0435 0.05 -0.0947 0.06 -0.13697 z m 1.804 0.1531 c 0.771 0.0695 1.561 0.14879 2.376 0.23908 c 0.04 0.0413 0.09 0.0893 0.127 0.13156 c -0.808 0.0859 -1.616 0.16894 -2.427 0.26594 c -0.811 0.0969 -1.613 0.20733 -2.416 0.31427 c 0.03 -0.05 0.06 -0.10977 0.09 -0.15845 c 0.771 -0.28002 1.521 -0.54326 2.252 -0.7924 z m 14.331 0.20146 c 1.405 -0.0207 2.636 0.0119 3.733 0.0779 c 0.931 0.58267 1.951 1.27156 3.081 2.10319 c -0.138 0.0921 -0.29 0.18526 -0.459 0.2847 c -1.032 -0.23213 -2.087 -0.45665 -3.175 -0.67689 c -1.012 -0.45099 -1.998 -0.87807 -2.97 -1.28663 c -0.08 -0.1807 -0.15 -0.34575 -0.21 -0.50229 z m -0.676 0.0133 c 0.01 0.0421 0.03 0.0936 0.06 0.13697 c -0.1 -0.0415 -0.206 -0.088 -0.305 -0.12891 c 0.08 -0.003 0.171 -0.006 0.252 -0.008 z m -1.809 0.0671 c 0.718 0.28344 1.453 0.58106 2.208 0.89715 c 0.02 0.0504 0.06 0.11216 0.08 0.16386 c -0.799 -0.14535 -1.597 -0.29423 -2.402 -0.42978 c -0.807 -0.13563 -1.608 -0.25713 -2.412 -0.38142 c 0.04 -0.04 0.09 -0.0844 0.131 -0.12354 c 0.822 -0.0515 1.616 -0.0935 2.391 -0.12627 z m 7.549 0.0913 c 1.213 0.13842 2.116 0.36475 2.51 0.61777 c 0.212 0.13661 0.257 0.23145 0.258 0.3277 c 0 0.0963 -0.07 0.28534 -0.33 0.53991 c -0.04 0.0389 -0.111 0.0852 -0.159 0.12624 c -0.801 -0.59245 -1.565 -1.13249 -2.279 -1.61162 z m -13.488 0.3008 c 0.68 0.0918 1.352 0.17748 2.042 0.27938 c -0.258 0.23023 -0.518 0.46248 -0.826 0.71717 c -0.381 0.31533 -0.804 0.65273 -1.261 1.00729 c -0.44 -0.37517 -0.849 -0.73392 -1.214 -1.06639 c -0.296 -0.26962 -0.546 -0.51199 -0.795 -0.75477 c 0.695 -0.0689 1.37 -0.12336 2.054 -0.18268 z m -2.862 0.26862 c 0.348 0.35131 0.73 0.72271 1.181 1.13353 c 0.34 0.30955 0.723 0.64393 1.125 0.9885 c -1.255 0.95313 -2.778 2.04359 -4.591 3.27701 c -2.052 -0.77161 -3.79 -1.47 -5.235 -2.10052 c 0.309 -0.42929 0.602 -0.84679 0.859 -1.22755 c 0.341 -0.50439 0.627 -0.95543 0.881 -1.37795 c 0.958 -0.13007 1.919 -0.26032 2.886 -0.37608 c 0.968 -0.11572 1.932 -0.21729 2.894 -0.31694 z m 5.71 0.137 c 0.958 0.14544 1.917 0.29214 2.878 0.45394 c 0.961 0.16165 1.914 0.33755 2.865 0.51305 c 0.235 0.43458 0.497 0.89754 0.814 1.41824 c 0.238 0.39201 0.512 0.82234 0.799 1.26516 c -1.472 0.56069 -3.241 1.17546 -5.326 1.84802 c -1.751 -1.31872 -3.221 -2.47984 -4.43 -3.49192 c 0.416 -0.3239 0.815 -0.6399 1.169 -0.93204 c 0.468 -0.38793 0.869 -0.74079 1.231 -1.07445 z m -12.296 0.66077 c -0.184 0.29457 -0.372 0.58943 -0.596 0.92131 c -0.276 0.40982 -0.587 0.85515 -0.926 1.32426 c -0.528 -0.23638 -1.022 -0.46588 -1.465 -0.68229 c -0.361 -0.17527 -0.669 -0.33934 -0.975 -0.5023 c 0.648 -0.26214 1.28 -0.50252 1.92 -0.75209 c 0.679 -0.10381 1.349 -0.21155 2.042 -0.30889 z m -6.413 0.29011 c 0.03 0.0286 0.08 0.0597 0.123 0.0886 c -0.109 0.0197 -0.225 0.0391 -0.333 0.0591 c 0.07 -0.0466 0.142 -0.10181 0.21 -0.14773 z m -4.205 0.0216 c 0.06 0.006 0.111 0.0279 0.148 0.0591 c 0.07 0.0625 0.166 0.24127 0.188 0.60436 c 0 0.0553 0 0.13886 0 0.20147 c -0.975 0.21851 -1.883 0.4418 -2.714 0.66882 c 0.9 -0.8281 1.664 -1.36136 2.112 -1.49346 c 0.122 -0.0356 0.207 -0.0459 0.272 -0.0403 z m 29.457 0.13699 c 0.688 0.13035 1.353 0.2695 2.027 0.40559 c 0.626 0.2795 1.245 0.55095 1.879 0.84345 c -0.313 0.14815 -0.631 0.29601 -0.998 0.45394 c -0.454 0.19483 -0.955 0.399 -1.493 0.60975 c -0.316 -0.48424 -0.608 -0.94243 -0.864 -1.36455 c -0.209 -0.3421 -0.381 -0.64519 -0.551 -0.94818 z m -24.391 0.43783 c 0.05 0.0292 0.108 0.0618 0.156 0.0914 c -0.75 0.31001 -1.502 0.61579 -2.252 0.93742 c -0.751 0.32167 -1.491 0.65336 -2.234 0.98309 c 0.01 -0.0557 0.03 -0.12314 0.04 -0.17727 c 0.66 -0.48524 1.303 -0.94945 1.933 -1.39409 c 0.761 -0.15086 1.544 -0.29673 2.355 -0.44051 z m 30.781 0.15846 c 0.06 0.0481 0.133 0.10445 0.198 0.15314 c -0.104 -0.0246 -0.216 -0.0507 -0.322 -0.0752 c 0.03 -0.0259 0.09 -0.0523 0.124 -0.0779 z m 4.198 0.2203 c 0.06 -0.003 0.152 0.0122 0.272 0.0537 c 0.442 0.15348 1.179 0.72178 2.04 1.59288 c -0.82 -0.26644 -1.716 -0.53307 -2.679 -0.79781 c 0 -0.0632 0 -0.14845 0 -0.20413 c 0.04 -0.36164 0.141 -0.53459 0.217 -0.59361 c 0.04 -0.0295 0.08 -0.0486 0.148 -0.051 z m -34.141 0.10742 c 0.432 0.23927 0.905 0.48758 1.453 0.75481 c 0.412 0.20118 0.876 0.41656 1.358 0.63391 c -0.936 1.26864 -2.093 2.74265 -3.485 4.43739 c -2.186 -0.16176 -4.051 -0.34492 -5.614 -0.54258 c 0.175 -0.49858 0.342 -0.98075 0.481 -1.41824 c 0.185 -0.58122 0.331 -1.09351 0.456 -1.5714 c 0.884 -0.39489 1.768 -0.78996 2.664 -1.17379 c 0.896 -0.38374 1.792 -0.75343 2.687 -1.1201 z m 29.057 0.22563 c 0.799 0.18155 1.572 0.36449 2.322 0.55066 c 0.611 0.47543 1.233 0.97042 1.871 1.48807 c 0 0.0541 0.02 0.12152 0.03 0.17729 c -0.727 -0.36492 -1.45 -0.73064 -2.185 -1.08785 c -0.735 -0.35699 -1.469 -0.69949 -2.204 -1.04491 c 0.05 -0.0273 0.113 -0.0564 0.161 -0.0833 z m -33.771 0.0403 c -0.09 0.0637 -0.181 0.13445 -0.269 0.19878 c 0 -0.0466 0.02 -0.10278 0.02 -0.14773 c 0.08 -0.017 0.167 -0.0339 0.247 -0.051 z m 18.812 0.10208 c 1.156 0.97285 2.562 2.08659 4.212 3.33611 c -1.282 0.40684 -2.81 0.85738 -4.326 1.30545 c -1.49 -0.51943 -2.994 -1.04242 -4.255 -1.5096 c 1.709 -1.16996 3.167 -2.21503 4.369 -3.13196 z m -19.72 0.0967 c -0.02 0.16533 -0.05 0.34113 -0.08 0.53454 c -0.849 0.62682 -1.708 1.27536 -2.585 1.95275 c -1.007 0.4709 -1.978 0.93848 -2.926 1.40752 c -0.188 -0.0567 -0.357 -0.11241 -0.514 -0.16924 c 0.904 -1.07551 1.732 -1.98597 2.5 -2.77201 c 1.049 -0.32257 2.239 -0.64276 3.608 -0.95356 z m 33.817 0.20952 c 0.876 0.4088 1.755 0.82044 2.63 1.24632 c 0.878 0.42605 1.745 0.86087 2.608 1.29736 c 0.102 0.48287 0.221 1.00149 0.379 1.59017 c 0.118 0.44385 0.262 0.93317 0.413 1.43974 c -1.572 0.12308 -3.443 0.21644 -5.635 0.274 c -1.309 -1.75819 -2.394 -3.28734 -3.268 -4.59856 c 0.493 -0.19437 0.966 -0.38526 1.388 -0.56675 c 0.56 -0.24057 1.042 -0.46409 1.485 -0.68228 z m 4.701 0.48885 c 0.08 0.0207 0.164 0.0411 0.242 0.0618 c 0 0.0448 0.01 0.10127 0.01 0.14773 c -0.09 -0.0677 -0.172 -0.14256 -0.255 -0.20951 z m 0.894 0.23905 c 1.353 0.37592 2.525 0.75034 3.56 1.12279 c 0.729 0.82182 1.513 1.77005 2.365 2.88753 c -0.159 0.0493 -0.328 0.10005 -0.518 0.14773 c -0.926 -0.51408 -1.876 -1.02847 -2.86 -1.54717 c -0.844 -0.71863 -1.672 -1.40688 -2.491 -2.07367 c -0.02 -0.19392 -0.04 -0.37177 -0.06 -0.53721 z m -30.391 0.24713 c 1.384 0.60759 3.047 1.27788 4.983 2.0119 c -1.115 0.75164 -2.456 1.61423 -3.783 2.47114 c -1.576 -0.078 -3.168 -0.1568 -4.508 -0.24977 c 1.309 -1.60324 2.413 -3.01513 3.308 -4.23327 z m -13.902 0.17459 c -0.582 0.63473 -1.193 1.34021 -1.833 2.10587 c -0.06 -0.0292 -0.137 -0.0598 -0.186 -0.0886 c -0.312 -0.1861 -0.429 -0.34948 -0.45 -0.44318 c -0.02 -0.0937 0 -0.19853 0.176 -0.38142 c 0.324 -0.33903 1.145 -0.77152 2.293 -1.19264 z m 35.227 0.33041 c 0.836 1.25979 1.869 2.72442 3.101 4.38904 c -1.345 0.0292 -2.937 0.0294 -4.516 0.0323 c -1.284 -0.9183 -2.579 -1.8426 -3.657 -2.64584 c 1.968 -0.64078 3.66 -1.2346 5.072 -1.77546 z m -30.821 0.47004 c -0.09 0.3342 -0.188 0.66911 -0.309 1.05026 c -0.149 0.47098 -0.322 0.98558 -0.515 1.53109 c -0.574 -0.0781 -1.11 -0.15922 -1.598 -0.24176 c -0.394 -0.0668 -0.736 -0.13691 -1.077 -0.20686 c 0.549 -0.43419 1.088 -0.84558 1.63 -1.26512 c 0.621 -0.29019 1.233 -0.5796 1.869 -0.86761 z m 44.698 0.368 c 1.126 0.47499 1.927 0.94896 2.234 1.30276 c 0.165 0.19101 0.184 0.29425 0.158 0.38678 c -0.03 0.0925 -0.152 0.25337 -0.473 0.42441 c -0.05 0.0261 -0.13 0.0517 -0.188 0.0779 c -0.602 -0.79522 -1.18 -1.53011 -1.731 -2.19183 z m -4.441 0.58826 c 0.624 0.31885 1.221 0.64123 1.829 0.96161 c 0.52 0.44409 1.039 0.8788 1.565 1.33765 c -0.343 0.0537 -0.688 0.10792 -1.085 0.15581 c -0.49 0.0592 -1.029 0.11321 -1.605 0.16387 c -0.168 -0.55371 -0.319 -1.07526 -0.446 -1.55257 c -0.103 -0.38712 -0.18 -0.72761 -0.258 -1.06637 z m -25.062 0.35186 c 1.148 0.4289 2.531 0.91039 3.874 1.38333 c -1.099 0.32037 -2.367 0.66876 -3.587 1.00996 c -1.266 -0.0439 -2.581 -0.0822 -3.726 -0.1343 c 1.194 -0.77652 2.425 -1.57138 3.439 -2.25899 z m 9.824 0.23638 c 0.979 0.73389 2.17 1.58387 3.323 2.41477 c -1.145 -0.003 -2.461 -0.024 -3.728 -0.0403 c -1.201 -0.39844 -2.45 -0.80725 -3.53 -1.1792 c 1.363 -0.40832 2.768 -0.82163 3.935 -1.19531 z m -31.084 0.53991 c 0.04 0.0167 0.1 0.0319 0.14 0.0483 c -0.1 0.049 -0.202 0.0989 -0.298 0.14776 c 0.06 -0.0628 0.107 -0.13396 0.158 -0.19608 z m 0.989 0.3277 c 0.06 0.0152 0.123 0.028 0.18 0.043 c -0.634 0.50947 -1.268 1.01586 -1.899 1.53638 c -0.629 0.52037 -1.246 1.04831 -1.866 1.57407 c 0 -0.0564 0 -0.12543 -0.01 -0.17994 c 0.499 -0.65525 0.988 -1.28348 1.471 -1.89104 c 0.684 -0.35735 1.39 -0.71784 2.124 -1.08247 z m 0.944 0.23369 c 0.482 0.1075 1.006 0.21267 1.605 0.31424 c 0.454 0.0767 0.956 0.15031 1.48 0.22297 c -0.541 1.48119 -1.236 3.22203 -2.094 5.24056 c -2.142 0.46068 -3.981 0.81276 -5.535 1.06368 c 0.03 -0.52824 0.06 -1.03679 0.06 -1.49617 c 0.01 -0.60914 0 -1.14516 0 -1.63852 c 0.736 -0.62734 1.475 -1.25448 2.226 -1.87486 c 0.751 -0.62088 1.508 -1.22768 2.263 -1.8319 z m 24.2 0.40021 c 0.796 0.27628 1.586 0.55225 2.448 0.84342 c -0.849 -0.0155 -1.565 -0.0161 -2.466 -0.0376 c -0.901 -0.0216 -1.616 -0.0556 -2.465 -0.0806 c 0.874 -0.24959 1.676 -0.4873 2.483 -0.72523 z m -20.476 0.22027 c 1.499 0.19271 3.284 0.37067 5.348 0.52916 c -0.858 1.03503 -1.9 2.23985 -2.932 3.43549 c -1.535 0.36967 -3.085 0.74535 -4.398 1.03415 c 0.805 -1.90848 1.466 -3.57717 1.982 -4.9988 z m -9.689 0.0216 c 0.06 -0.0131 0.114 -0.004 0.158 0.0162 c 0.09 0.0394 0.229 0.18435 0.352 0.52646 c 0.01 0.0524 0.03 0.13581 0.05 0.1961 c -0.874 0.4843 -1.683 0.95538 -2.416 1.40749 c 0.63 -1.04849 1.21 -1.77454 1.605 -2.02797 c 0.106 -0.0684 0.185 -0.10527 0.249 -0.11822 z m 56.317 0.043 c 0.05 0.0639 0.1 0.13678 0.148 0.20145 c -0.09 -0.0532 -0.196 -0.10782 -0.291 -0.16119 c 0.04 -0.0143 0.101 -0.0255 0.143 -0.0403 z m -1.009 0.27935 c 0.717 0.40014 1.407 0.794 2.075 1.18454 c 0.452 0.62835 0.91 1.27897 1.378 1.95546 c 0 0.0545 -0.01 0.12366 -0.02 0.17997 c -0.593 -0.55453 -1.183 -1.11037 -1.787 -1.66 c -0.605 -0.55013 -1.214 -1.08579 -1.823 -1.62509 c 0.06 -0.0119 0.123 -0.0225 0.177 -0.0349 z m -0.951 0.18802 c 0.725 0.63931 1.451 1.28095 2.172 1.93667 c 0.721 0.65522 1.43 1.31815 2.135 1.97963 c -0.04 0.49228 -0.06 1.0264 -0.08 1.63581 c -0.01 0.45865 -0.01 0.96814 -0.01 1.49615 c -1.542 -0.32479 -3.364 -0.76171 -5.482 -1.32423 c -0.761 -2.05672 -1.37 -3.82954 -1.839 -5.33455 c 0.526 -0.0476 1.031 -0.0981 1.487 -0.15314 c 0.605 -0.0729 1.133 -0.15176 1.619 -0.23634 z m -38.557 0.0564 c 1.221 0.088 2.683 0.15857 4.104 0.2337 c -0.964 0.61747 -2.082 1.31092 -3.157 1.98233 c -1.225 0.31426 -2.497 0.64369 -3.608 0.91593 c 0.925 -1.07995 1.881 -2.18755 2.661 -3.13196 z m 5.164 0.29278 c 0.842 0.0409 1.679 0.0818 2.589 0.11819 c -0.82 0.22486 -1.508 0.42726 -2.378 0.66077 c -0.873 0.23376 -1.57 0.4021 -2.393 0.6178 c 0.771 -0.48666 1.475 -0.94039 2.182 -1.39676 z m -19.447 0.0779 c -0.06 0.0863 -0.134 0.18149 -0.202 0.26862 c 0 -0.0462 -0.01 -0.10339 -0.02 -0.14776 c 0.07 -0.0389 0.151 -0.0818 0.222 -0.12086 z m 49.09 0.0162 c 0.447 1.44414 1.029 3.14099 1.742 5.08477 c -1.297 -0.35082 -2.826 -0.79887 -4.341 -1.24098 c -0.974 -1.24414 -1.96 -2.49723 -2.768 -3.57247 c 2.068 -0.0601 3.86 -0.15019 5.367 -0.27132 z m -24.952 0.094 c 1.467 0.0504 2.84 0.10609 4.476 0.14505 c 1.636 0.039 3.014 0.0477 4.483 0.0671 c 1.393 0.46184 2.695 0.90401 4.252 1.40214 c 1.558 0.49822 2.875 0.89457 4.277 1.32693 c 1.208 0.8367 2.333 1.62833 3.689 2.54639 c 1.355 0.91798 2.509 1.66837 3.734 2.47925 c 0.924 1.1425 1.778 2.2191 2.819 3.4812 c 1.042 1.2625 1.937 2.3069 2.884 3.4301 c 0.564 1.3567 1.082 2.6316 1.726 4.1366 c 0.645 1.5051 1.209 2.7597 1.801 4.1043 c 0.159 1.4604 0.298 2.8281 0.492 4.4535 c 0.194 1.62719 0.381 2.99249 0.572 4.45079 c -0.259 1.4455 -0.51 2.7971 -0.782 4.4106 c -0.271 1.6118 -0.475 2.9692 -0.703 4.4186 c -0.657 1.3165 -1.279 2.5461 -1.995 4.021 c -0.715 1.4732 -1.294 2.7219 -1.922 4.0506 c -0.999 1.0762 -1.942 2.0771 -3.042 3.2878 c -1.1 1.2109 -2.007 2.2443 -2.983 3.3415 c -1.262 0.7517 -2.449 1.4494 -3.846 2.3019 c -1.397 0.8513 -2.558 1.5865 -3.802 2.3638 c -1.424 0.3655 -2.759 0.6986 -4.341 1.1228 c -1.581 0.4237 -2.903 0.8027 -4.318 1.198 c -1.466 -0.051 -2.839 -0.1061 -4.475 -0.1451 c -1.636 -0.039 -3.012 -0.048 -4.481 -0.067 c -1.394 -0.4621 -2.697 -0.9036 -4.255 -1.4021 c -1.558 -0.4982 -2.874 -0.8946 -4.277 -1.327 c -1.208 -0.8366 -2.333 -1.6283 -3.689 -2.5464 c -1.355 -0.9179 -2.509 -1.6684 -3.733 -2.4792 c -0.924 -1.1425 -1.778 -2.2191 -2.82 -3.4812 c -1.043 -1.2636 -1.938 -2.3088 -2.886 -3.4328 c -0.564 -1.3562 -1.082 -2.6294 -1.726 -4.1338 c -0.644 -1.5034 -1.208 -2.7558 -1.799 -4.099 c -0.159 -1.4623 -0.297 -2.8339 -0.492 -4.4616 c -0.193 -1.6268 -0.381 -2.9902 -0.572 -4.4481 c 0.26 -1.4455 0.511 -2.79709 0.782 -4.41059 c 0.271 -1.6118 0.476 -2.9692 0.703 -4.4186 c 0.657 -1.3165 1.279 -2.5461 1.995 -4.021 c 0.715 -1.4722 1.292 -2.72 1.92 -4.0479 c 0.999 -1.077 1.943 -2.0788 3.044 -3.2905 c 1.102 -1.2124 2.009 -2.2484 2.986 -3.34683 c 1.261 -0.75112 2.447 -1.44494 3.844 -2.29663 c 1.395 -0.8511 2.554 -1.58661 3.799 -2.36375 c 1.424 -0.36568 2.761 -0.69842 4.344 -1.12276 c 1.581 -0.42386 2.903 -0.80261 4.317 -1.19799 z m 18.82 0.20146 c 0.733 0.9805 1.636 2.13257 2.51 3.25552 c -1.099 -0.32552 -2.356 -0.71746 -3.568 -1.09055 c -1.039 -0.71986 -2.12 -1.46361 -3.053 -2.12468 c 1.424 -0.007 2.887 -0.0107 4.111 -0.0403 z m -7.759 0.043 c 0.909 0.007 1.744 0.006 2.586 0.006 c 0.683 0.48813 1.364 0.97239 2.107 1.49347 c -0.809 -0.25382 -1.495 -0.45394 -2.352 -0.72794 c -0.858 -0.27427 -1.533 -0.50772 -2.341 -0.77091 z m -36.015 0.094 c 0.03 0.16441 0.05 0.3418 0.07 0.53721 c -0.639 0.84235 -1.284 1.7065 -1.936 2.6055 c -0.831 0.73469 -1.631 1.45646 -2.408 2.17303 c -0.196 -0.003 -0.374 -0.008 -0.539 -0.0188 c 0.564 -1.28697 1.103 -2.39478 1.618 -3.36566 c 0.917 -0.60564 1.969 -1.24688 3.196 -1.93127 z m 59.584 0.051 c 0.06 0.0158 0.138 0.0556 0.242 0.12892 c 0.381 0.27211 0.93 1.02458 1.511 2.10321 c -0.712 -0.487 -1.499 -0.99443 -2.348 -1.52029 c 0.02 -0.0597 0.04 -0.14184 0.06 -0.19341 c 0.14 -0.33587 0.286 -0.47515 0.375 -0.5104 c 0.05 -0.0176 0.1 -0.024 0.159 -0.008 z m -1.56 0.86494 c 0.07 0.0427 0.151 0.0864 0.22 0.12891 c -0.01 0.0444 -0.01 0.10148 -0.03 0.14773 c -0.06 -0.0902 -0.128 -0.18729 -0.19 -0.27664 z m 0.795 0.48348 c 1.192 0.74194 2.211 1.43308 3.098 2.08173 c 0.469 0.99388 0.953 2.12631 1.455 3.43817 c -0.167 0.003 -0.343 0.003 -0.539 -0.006 c -0.743 -0.75338 -1.507 -1.51447 -2.304 -2.28854 c -0.608 -0.92757 -1.209 -1.82093 -1.807 -2.69145 c 0.03 -0.19514 0.06 -0.37089 0.1 -0.53453 z m -58.667 0.8058 c 0 0.3473 0.01 0.69575 0 1.09593 c -0.01 0.49417 -0.03 1.03646 -0.06 1.61432 c -0.571 0.0867 -1.11 0.16211 -1.6 0.22028 c -0.396 0.047 -0.744 0.076 -1.09 0.10475 c 0.403 -0.57149 0.805 -1.11739 1.208 -1.67341 c 0.514 -0.45388 1.02 -0.90578 1.549 -1.36187 z m 14.101 0.30623 c -0.721 0.4448 -1.319 0.83005 -2.086 1.29736 c -0.769 0.46857 -1.389 0.82474 -2.116 1.26247 c 0.599 -0.68113 1.145 -1.3123 1.694 -1.9474 c 0.817 -0.19726 1.628 -0.3917 2.508 -0.61243 z m -18.552 0.16654 c -0.38 0.77393 -0.771 1.62478 -1.17 2.54102 c -0.06 -0.0122 -0.148 -0.0182 -0.201 -0.0322 c -0.353 -0.0905 -0.509 -0.21717 -0.556 -0.30087 c -0.05 -0.0837 -0.06 -0.189 0.06 -0.41364 c 0.215 -0.41662 0.882 -1.0662 1.866 -1.7943 z m 48.752 0.54797 c 0.871 0.26321 1.675 0.4994 2.483 0.73596 c 0.52 0.66178 1.036 1.32033 1.603 2.03068 c -0.707 -0.47263 -1.31 -0.85899 -2.057 -1.36452 c -0.745 -0.50524 -1.328 -0.92174 -2.029 -1.40212 z m -33.742 0.13968 c -0.75 0.86317 -1.626 1.84259 -2.466 2.78815 c -1.089 0.64728 -2.216 1.32431 -3.206 1.89901 c 0.584 -1.29802 1.188 -2.63148 1.669 -3.75777 c 1.197 -0.25983 2.619 -0.601 4.003 -0.92939 z m 47.85 0.23099 c 0.508 0.48068 0.99 0.95389 1.482 1.43169 c 0.376 0.57492 0.752 1.13936 1.128 1.72984 c -0.345 -0.0452 -0.69 -0.0899 -1.085 -0.15581 c -0.487 -0.0815 -1.021 -0.18155 -1.589 -0.29546 c 0 -0.57877 0 -1.12018 0.01 -1.61436 c 0.01 -0.40014 0.03 -0.74923 0.06 -1.0959 z m -10.604 0.6554 c 1.366 0.394 2.771 0.80355 3.954 1.12009 c 0.427 1.14827 0.971 2.50828 1.493 3.83308 c -0.962 -0.6212 -2.056 -1.3511 -3.111 -2.0495 c -0.796 -0.98544 -1.627 -2.00494 -2.336 -2.90367 z m 15.029 0.0294 c 0.947 0.77404 1.582 1.45393 1.777 1.88025 c 0.104 0.22996 0.09 0.33505 0.04 0.41634 c -0.06 0.0813 -0.216 0.20033 -0.572 0.274 c -0.06 0.0112 -0.139 0.0124 -0.201 0.0216 c -0.355 -0.93395 -0.705 -1.8011 -1.047 -2.59207 z m -57.027 0.17192 c -0.531 1.23518 -1.193 2.68476 -1.847 4.12315 c -1.369 0.7876 -2.749 1.5849 -3.927 2.2321 c 0.234 -2.0574 0.399 -3.84435 0.494 -5.35335 c 1.492 -0.23753 3.255 -0.57221 5.28 -1.0019 z m -5.917 1.10131 c -0.101 1.57327 -0.276 3.43854 -0.531 5.61654 c -1.927 1.0467 -3.593 1.9045 -5.015 2.584 c -0.122 -0.514 -0.243 -1.0099 -0.363 -1.4531 c -0.157 -0.5868 -0.311 -1.0977 -0.464 -1.566 c 0.53 -0.8105 1.062 -1.6228 1.608 -2.4309 c 0.546 -0.8074 1.102 -1.60349 1.657 -2.39598 c 0.491 -0.0325 1.024 -0.0789 1.627 -0.15043 c 0.455 -0.054 0.96 -0.12636 1.481 -0.20413 z m 52.61 0.0107 c 2.003 0.52593 3.747 0.94593 5.228 1.25442 c 0.02 1.51182 0.102 3.30322 0.239 5.36942 c -1.148 -0.7031 -2.49 -1.5648 -3.821 -2.4174 c -0.584 -1.4673 -1.173 -2.94777 -1.646 -4.20644 z m -57.737 0.35189 c 0.05 0.004 0.103 0.004 0.15 0.008 c -0.08 0.0748 -0.168 0.1512 -0.247 0.22565 c 0.03 -0.0752 0.06 -0.15934 0.1 -0.2337 z m 1.229 0.0267 c -0.464 0.66731 -0.929 1.33225 -1.387 2.00925 c -0.459 0.6768 -0.902 1.3568 -1.348 2.036 c -0.02 -0.053 -0.04 -0.1204 -0.06 -0.1719 c 0.294 -0.767 0.584 -1.5072 0.876 -2.2241 c 0.557 -0.53757 1.136 -1.08256 1.739 -1.64116 c 0.06 -0.003 0.123 -0.007 0.18 -0.008 z m 62.366 1.00461 c 0.518 0.10263 1.018 0.19834 1.472 0.27394 c 0.602 0.1007 1.13 0.1725 1.621 0.2284 c 0.516 0.8175 1.032 1.6392 1.538 2.4711 c 0.507 0.8319 0.997 1.6674 1.488 2.5008 c -0.176 0.4611 -0.351 0.9649 -0.538 1.5445 c -0.139 0.437 -0.283 0.9268 -0.429 1.4343 c -1.388 -0.7462 -3.012 -1.6808 -4.886 -2.8177 c -0.151 -2.1869 -0.239 -4.0593 -0.266 -5.63534 z m 3.876 0.57484 c 0.06 0 0.128 0.013 0.183 0.016 c 0.575 0.5854 1.127 1.1568 1.657 1.7191 c 0.257 0.7303 0.511 1.4839 0.768 2.2644 c -0.02 0.05 -0.05 0.1149 -0.07 0.1665 c -0.413 -0.6989 -0.823 -1.398 -1.248 -2.0951 c -0.425 -0.6974 -0.859 -1.383 -1.291 -2.071 z m 1.077 0.029 c 0.05 0 0.105 0 0.151 0 c 0.03 0.076 0.06 0.1621 0.09 0.2391 c -0.08 -0.078 -0.16 -0.1602 -0.237 -0.2391 z m -56.62 0.1719 c -0.568 0.6322 -1.037 1.1729 -1.643 1.84 c -0.607 0.6679 -1.102 1.1866 -1.679 1.8131 c 0.386 -0.8251 0.733 -1.5866 1.083 -2.353 c 0.729 -0.4204 1.454 -0.839 2.239 -1.3001 z m -15.298 0.454 c 0.1 0.013 0.272 0.1121 0.486 0.4055 c 0.03 0.046 0.07 0.1234 0.105 0.1774 c -0.701 0.7104 -1.346 1.3877 -1.922 2.0279 c 0.31 -1.1837 0.663 -2.0444 0.969 -2.3986 c 0.166 -0.1911 0.268 -0.2253 0.362 -0.2122 z m 1.564 0.5023 c -0.04 0.1018 -0.08 0.2115 -0.122 0.3142 c -0.02 -0.043 -0.04 -0.096 -0.06 -0.137 c 0.06 -0.058 0.125 -0.1192 0.183 -0.1772 z m 58.51 0.1128 c 0.761 0.4976 1.466 0.9477 2.174 1.4021 c 0.312 0.7823 0.622 1.5615 0.966 2.4041 c -0.545 -0.6533 -1.014 -1.1949 -1.589 -1.891 c -0.573 -0.6946 -1.015 -1.2573 -1.551 -1.9152 z m -59.169 0.5453 c 0.07 0.1501 0.146 0.3127 0.221 0.4942 c -0.377 0.9882 -0.75 1.9998 -1.123 3.046 c -0.592 0.9399 -1.158 1.857 -1.702 2.764 c -0.187 0.054 -0.359 0.098 -0.521 0.1343 c 0.179 -1.3926 0.383 -2.6066 0.604 -3.6826 c 0.709 -0.8396 1.537 -1.7535 2.521 -2.7559 z m 11.23 0.2095 c -0.478 1.0409 -1.045 2.2282 -1.587 3.3737 c -0.861 0.9278 -1.751 1.8959 -2.539 2.7263 c 0.195 -1.4108 0.4 -2.8605 0.545 -4.0774 c 1.075 -0.5869 2.344 -1.3169 3.581 -2.0226 z m 63.193 0.4244 c 0.1 -0.01 0.195 0.029 0.351 0.2283 c 0.29 0.3682 0.601 1.2429 0.854 2.4389 c -0.544 -0.6656 -1.155 -1.3726 -1.82 -2.1139 c 0.03 -0.052 0.08 -0.1281 0.113 -0.1719 c 0.229 -0.2829 0.406 -0.3729 0.502 -0.3814 z m -1.587 0.427 c 0.06 0.061 0.12 0.1251 0.174 0.1854 c -0.02 0.04 -0.05 0.093 -0.07 0.1343 c -0.03 -0.1044 -0.07 -0.2161 -0.105 -0.3197 z m -10.599 0.3627 c 1.202 0.764 2.436 1.5516 3.482 2.1891 c 0.09 1.2223 0.224 2.6807 0.352 4.099 c -0.749 -0.8679 -1.594 -1.8759 -2.411 -2.8446 c -0.486 -1.1691 -0.995 -2.3817 -1.423 -3.4435 z m 11.225 0.325 c 0.936 1.0487 1.721 1.9986 2.389 2.8714 c 0.17 1.0855 0.317 2.3096 0.43 3.7095 c -0.161 -0.044 -0.332 -0.096 -0.519 -0.1585 c -0.499 -0.9313 -1.019 -1.8754 -1.565 -2.8419 c -0.322 -1.0624 -0.648 -2.0896 -0.976 -3.0943 c 0.08 -0.1787 0.162 -0.339 0.241 -0.4862 z m -72.691 0.325 c 0.102 0.3319 0.202 0.6665 0.306 1.053 c 0.128 0.4772 0.26 1.0026 0.392 1.5659 c -0.524 0.2443 -1.021 0.4667 -1.474 0.6608 c -0.367 0.1568 -0.692 0.2834 -1.015 0.4083 c 0.227 -0.6637 0.459 -1.3016 0.69 -1.9501 c 0.365 -0.5791 0.722 -1.1524 1.101 -1.7379 z m 6.203 0.5211 c -0.161 1.3351 -0.386 2.9134 -0.608 4.4777 c -1.092 1.1415 -2.193 2.2943 -3.142 3.2474 c -0.353 -2.0404 -0.699 -3.8007 -1.033 -5.2754 c 1.366 -0.6488 2.962 -1.4664 4.783 -2.4497 z m -10.343 1.1899 c -0.147 0.8487 -0.281 1.7739 -0.405 2.764 c -0.06 0.01 -0.148 0.025 -0.205 0.027 c -0.363 0.012 -0.547 -0.065 -0.617 -0.1316 c -0.07 -0.067 -0.107 -0.1655 -0.06 -0.4137 c 0.09 -0.4601 0.547 -1.2701 1.286 -2.2456 z m 75.966 0 c 0.352 0.6039 0.68 1.1949 1.018 1.7917 c 0.199 0.6574 0.401 1.3046 0.596 1.9769 c -0.317 -0.1402 -0.636 -0.2823 -0.996 -0.4566 c -0.445 -0.2157 -0.93 -0.4614 -1.441 -0.7306 c 0.158 -0.5562 0.316 -1.0742 0.466 -1.5445 c 0.122 -0.3807 0.24 -0.7105 0.357 -1.0369 z m -6.22 0.2257 c 1.772 1.0681 3.328 1.9599 4.661 2.6726 c -0.404 1.4576 -0.833 3.1994 -1.284 5.2217 c -0.902 -0.9969 -1.946 -2.2007 -2.982 -3.3925 c -0.148 -1.5734 -0.296 -3.1602 -0.395 -4.5018 z m -64.769 1.3081 c 0.346 1.5386 0.703 3.3789 1.072 5.5414 c -1.553 1.5464 -2.91 2.837 -4.084 3.8894 c -0.262 -0.4596 -0.517 -0.8997 -0.757 -1.292 c -0.318 -0.5201 -0.61 -0.968 -0.889 -1.3753 c 0.28 -0.9256 0.563 -1.8547 0.86 -2.7827 c 0.296 -0.929 0.605 -1.8469 0.915 -2.764 c 0.463 -0.1698 0.957 -0.3654 1.516 -0.6044 c 0.422 -0.1803 0.888 -0.3905 1.367 -0.6124 z m 7.134 0.1665 c -0.367 0.7666 -0.664 1.4187 -1.058 2.2295 c -0.394 0.812 -0.722 1.4497 -1.098 2.2133 c 0.136 -0.9007 0.254 -1.7308 0.373 -2.5652 c 0.581 -0.6089 1.159 -1.2141 1.783 -1.8776 z m 67.909 0.2068 c 0.691 1.0082 1.109 1.8387 1.176 2.302 c 0.03 0.2502 0 0.3475 -0.08 0.411 c -0.07 0.063 -0.262 0.1318 -0.624 0.102 c -0.06 0 -0.138 -0.026 -0.2 -0.035 c -0.08 -0.9948 -0.168 -1.9254 -0.275 -2.7801 z m -78.676 1.0987 c -0.257 0.7711 -0.515 1.5394 -0.764 2.3181 c -0.249 0.7786 -0.482 1.5564 -0.72 2.3341 c -0.03 -0.046 -0.07 -0.1037 -0.107 -0.1477 c 0.06 -0.8194 0.137 -1.612 0.215 -2.3825 c 0.383 -0.672 0.784 -1.3581 1.205 -2.0629 c 0.06 -0.016 0.117 -0.042 0.171 -0.059 z m 66.496 0.022 c 0.59 0.6924 1.139 1.3249 1.691 1.9608 c 0.08 0.8379 0.159 1.6712 0.252 2.576 c -0.338 -0.7795 -0.636 -1.4304 -0.99 -2.259 c -0.355 -0.8291 -0.623 -1.4942 -0.953 -2.2778 z m 7.135 0.1746 c 0.469 0.2445 0.922 0.4767 1.335 0.6769 c 0.549 0.2659 1.035 0.4823 1.49 0.6742 c 0.265 0.9308 0.53 1.8648 0.781 2.8069 c 0.252 0.9409 0.49 1.8801 0.725 2.8177 c -0.298 0.3941 -0.61 0.827 -0.953 1.3323 c -0.257 0.3802 -0.535 0.8081 -0.819 1.2544 c -1.121 -1.107 -2.415 -2.4617 -3.893 -4.0802 c 0.472 -2.1412 0.916 -3.9623 1.334 -5.4822 z m -74.672 0.091 c -0.06 0.093 -0.115 0.1899 -0.169 0.282 c 0 -0.08 0.01 -0.1681 0.03 -0.2471 c 0.04 -0.01 0.1 -0.025 0.143 -0.035 z m 9.289 1.0475 c -0.165 1.1337 -0.375 2.4336 -0.571 3.6854 c -0.566 1.1334 -1.151 2.3114 -1.674 3.3307 c -0.209 -1.4079 -0.418 -2.8563 -0.622 -4.0641 c 0.867 -0.8667 1.878 -1.9254 2.867 -2.952 z m 68.941 0.505 c 0.06 0.02 0.117 0.049 0.169 0.067 c 0.387 0.7231 0.756 1.4255 1.106 2.114 c 0.04 0.7746 0.07 1.5701 0.1 2.3932 c -0.03 0.042 -0.08 0.096 -0.112 0.1397 c -0.2 -0.7875 -0.396 -1.5747 -0.607 -2.3637 c -0.211 -0.7893 -0.435 -1.5681 -0.655 -2.3504 z m 1.023 0.3331 c 0.05 0.012 0.1 0.032 0.145 0.043 c 0 0.081 0 0.171 0.01 0.2525 c -0.06 -0.096 -0.108 -0.1984 -0.158 -0.2955 z m -9.321 0.6071 c 0.937 1.0714 1.898 2.1773 2.722 3.0836 c -0.261 1.1971 -0.543 2.635 -0.819 4.0318 c -0.473 -1.0433 -0.998 -2.2492 -1.509 -3.4087 c -0.137 -1.2591 -0.284 -2.5669 -0.394 -3.7067 z m -72.6729996 0.6607 c 0.1 -0.014 0.291 0.032 0.58 0.2525 c 0.04 0.034 0.1019996 0.098 0.1499996 0.1397 c -0.4709996 0.8771 -0.8999996 1.7069 -1.2719996 2.4819 c -0.04 -1.2201 0.06 -2.145 0.255 -2.5705 c 0.105 -0.23 0.192 -0.2892 0.287 -0.3036 z m 1.6399996 0.046 c 0 0.1065 -0.02 0.2205 -0.03 0.3277 c -0.03 -0.034 -0.06 -0.078 -0.1 -0.1101 c 0.03 -0.07 0.08 -0.1468 0.123 -0.2176 z m -0.442 0.8139 c 0.111 0.1239 0.224 0.2606 0.346 0.4137 c -0.08 1.0542 -0.155 2.1306 -0.218 3.2394 c -0.302 1.0672 -0.584 2.1071 -0.8509996 3.1293 c -0.165 0.1048 -0.319 0.1957 -0.464 0.2766 c -0.221 -1.3894 -0.366 -2.613 -0.456 -3.7094 c 0.443 -1.0051 0.981 -2.1109 1.6429996 -3.3496 z m 7.42 0.5238 c 0.22 1.3266 0.449 2.9037 0.676 4.467 c -0.726 1.4024 -1.457 2.81799 -2.099 3.99949 c -0.914 -1.85759 -1.742 -3.45009 -2.477 -4.77039 c 1.126 -1.0071 2.429 -2.2396 3.9 -3.6961 z m 74.326 0.5936 c 0.03 0.074 0.08 0.1551 0.113 0.2283 c -0.03 0.031 -0.07 0.075 -0.102 0.1075 c 0 -0.1099 0 -0.2267 -0.01 -0.3358 z m 1.64 0.038 c 0.1 0.019 0.181 0.082 0.274 0.317 c 0.175 0.4352 0.227 1.3659 0.132 2.5867 c -0.335 -0.7937 -0.721 -1.6455 -1.152 -2.5465 c 0.05 -0.039 0.11 -0.1 0.156 -0.1316 c 0.299 -0.2069 0.496 -0.2444 0.59 -0.2256 z m -82.068 0.6178 c 0.19 0.2895 0.384 0.5802 0.593 0.9213 c 0.258 0.422 0.531 0.8905 0.817 1.3941 c -0.435 0.3817 -0.847 0.7337 -1.228 1.0476 c -0.309 0.2546 -0.586 0.4682 -0.862 0.6795 c 0.03 -0.6989 0.08 -1.3746 0.116 -2.0602 c 0.187 -0.6598 0.364 -1.3124 0.564 -1.9823 z m 80.834 0.1827 c 0.601 1.2685 1.086 2.3997 1.482 3.4247 c -0.144 1.0903 -0.345 2.30609 -0.631 3.68259 c -0.142 -0.088 -0.293 -0.1852 -0.454 -0.2981 c -0.218 -1.0348 -0.449 -2.08809 -0.701 -3.16959 c -0.01 -1.1097 -0.03 -2.1859 -0.06 -3.2421 c 0.13 -0.1475 0.251 -0.2788 0.368 -0.3975 z m -7.437 0.1719 c 1.399 1.5236 2.641 2.8169 3.718 3.876 c -0.798 1.284 -1.699 2.83449 -2.701 4.64689 c -0.584 -1.2103 -1.248 -2.6587 -1.905 -4.09359 c 0.301 -1.5511 0.605 -3.1143 0.888 -4.4293 z m -64.787 0.6742 c -0.137 0.8377 -0.237 1.546 -0.387 2.4335 c -0.15 0.8878 -0.284 1.5892 -0.43 2.42559 c -0.122 -0.90049 -0.242 -1.72759 -0.362 -2.55989 c 0.385 -0.7465 0.769 -1.489 1.179 -2.2992 z m 70.819 0.8595 c 0.168 0.681 0.317 1.3443 0.473 2.0146 c 0 0.6855 0.02 1.3616 0.02 2.06019 c -0.266 -0.2244 -0.533 -0.45049 -0.83 -0.71989 c -0.366 -0.3321 -0.761 -0.7041 -1.176 -1.1067 c 0.309 -0.4885 0.607 -0.9452 0.883 -1.3537 c 0.225 -0.3317 0.429 -0.6138 0.634 -0.8945 z m -8.647 0.6151 c 0.372 0.8311 0.721 1.5925 1.072 2.3584 c -0.161 0.82659 -0.322 1.64889 -0.487 2.54369 c -0.105 -0.8434 -0.207 -1.5519 -0.314 -2.44699 c -0.107 -0.8958 -0.174 -1.6099 -0.271 -2.4551 z m -74.2699996 0.3035 c 0.1 0.8559 0.228 1.7813 0.387 2.7667 c -0.06 0.023 -0.132 0.066 -0.186 0.083 c -0.344 0.1143 -0.545 0.093 -0.63 0.048 c -0.09 -0.045 -0.148 -0.12979 -0.172 -0.38139 c -0.05 -0.4663 0.168 -1.3735 0.601 -2.5169 z m 5.2059996 0.07 c 0.765 1.379 1.627 3.04409 2.591 5.01489 c -1.055 1.9213 -1.995 3.5404 -2.825 4.8807 c -0.38 -0.3668 -0.75 -0.7176 -1.09 -1.0261 c -0.451 -0.4098 -0.858 -0.7541 -1.24 -1.0664 c 0 -0.967 0.01 -1.9375 0.04 -2.9117 c 0.02 -0.9741 0.06 -1.9429 0.1 -2.90899 c 0.396 -0.2937 0.818 -0.6224 1.288 -1.01 c 0.354 -0.2915 0.739 -0.6249 1.136 -0.9724 z m 5.219 1.3915 c 0.161 1.1336 0.325 2.43769 0.488 3.69329 c -0.223 1.2478 -0.451 2.5432 -0.665 3.6692 c -0.598 -1.2924 -1.207 -2.6237 -1.742 -3.7256 c 0.587 -1.0748 1.261 -2.37519 1.919 -3.63689 z m 70.64 0.4136 c 0.382 0.3672 0.75 0.7172 1.09 1.02609 c 0.451 0.4097 0.858 0.7567 1.24 1.069 c 0 0.9671 -0.01 1.9375 -0.04 2.9117 c -0.02 0.9741 -0.06 1.9429 -0.1 2.9091 c -0.396 0.2936 -0.818 0.6224 -1.288 1.0099 c -0.355 0.2923 -0.741 0.6266 -1.139 0.9751 c -0.765 -1.3794 -1.624 -3.0458 -2.588 -5.0176 c 1.055 -1.9226 1.995 -3.5425 2.825 -4.88329 z m 5.206 0.1746 c 0.38 1.16569 0.547 2.08189 0.481 2.54639 c -0.03 0.2502 -0.104 0.3328 -0.191 0.3733 c -0.09 0.04 -0.289 0.053 -0.628 -0.078 c -0.06 -0.02 -0.124 -0.065 -0.18 -0.091 c 0.206 -0.9789 0.379 -1.8987 0.518 -2.75049 z m -84.134 0.4566 c -0.03 0.81239 -0.06 1.62189 -0.08 2.43899 c -0.02 0.8167 -0.02 1.629 -0.03 2.4416 c -0.05 -0.034 -0.1 -0.08 -0.145 -0.1128 c -0.167 -0.8035 -0.3219996 -1.5822 -0.4639996 -2.3422 c 0.1779996 -0.7534 0.3719996 -1.5252 0.5769996 -2.32079 c 0.05 -0.03 0.101 -0.073 0.148 -0.1048 z m 73.649 0.51039 c 0.599 1.2927 1.21 2.6233 1.746 3.7256 c -0.587 1.0749 -1.261 2.3749 -1.92 3.6369 c -0.16 -1.1336 -0.325 -2.4379 -0.488 -3.6933 c 0.223 -1.2474 0.448 -2.5436 0.662 -3.6692 z m -74.5669996 0.054 c -0.03 0.1064 -0.06 0.2193 -0.08 0.325 c -0.01 -0.081 -0.03 -0.1697 -0.05 -0.2498 c 0.04 -0.021 0.09 -0.053 0.128 -0.075 z m 82.7969996 1.386 c 0.05 0.034 0.1 0.078 0.142 0.1101 c 0.168 0.8048 0.324 1.5837 0.467 2.345 c -0.178 0.7533 -0.372 1.5251 -0.577 2.3207 c -0.05 0.03 -0.1 0.073 -0.147 0.1048 c 0.03 -0.8124 0.06 -1.6219 0.08 -2.439 c 0.02 -0.8168 0.02 -1.629 0.03 -2.4416 z m 0.888 0.607 c 0.04 0.025 0.09 0.06 0.129 0.083 c -0.01 0.08 -0.04 0.1689 -0.06 0.2498 c -0.02 -0.1083 -0.05 -0.2239 -0.07 -0.333 z m -76.772 0.7065 c 0.585 1.211 1.25 2.6603 1.909 4.0962 c -0.302 1.5504 -0.606 3.1149 -0.889 4.4294 c -1.399 -1.5239 -2.64 -2.8168 -3.718 -3.876 c 0.798 -1.2844 1.696 -2.8366 2.698 -4.6496 z m -7.0709996 0.6822 c 0.02 0.1067 0.05 0.2203 0.07 0.3277 c -0.04 -0.024 -0.09 -0.058 -0.126 -0.081 c 0.01 -0.079 0.04 -0.1672 0.06 -0.2471 z m -1.364 0.3976 c 0.104 0.01 0.239 0.037 0.408 0.102 c 0.06 0.02 0.123 0.065 0.18 0.091 c -0.205 0.9755 -0.38 1.8932 -0.518 2.7425 c -0.378 -1.162 -0.548 -2.0749 -0.481 -2.5383 c 0.03 -0.2503 0.103 -0.3329 0.191 -0.3734 c 0.04 -0.02 0.116 -0.033 0.22 -0.024 z m 11.4849996 0.3948 c 0.106 0.8435 0.207 1.552 0.314 2.4471 c 0.108 0.8958 0.175 1.6098 0.271 2.455 c -0.371 -0.8311 -0.721 -1.5924 -1.071 -2.3583 c 0.16 -0.8266 0.321 -1.6489 0.486 -2.5438 z m -10.3169996 0.1155 c 0.141 0.088 0.291 0.1858 0.451 0.2982 c 0.218 1.0349 0.4519996 2.0879 0.7029996 3.1696 c 0 1.1096 0.03 2.1859 0.06 3.2421 c -0.129 0.1474 -0.25 0.2787 -0.367 0.3975 c -0.6019996 -1.2694 -1.0859996 -2.4019 -1.4819996 -3.4274 c 0.143 -1.0897 0.345 -2.3046 0.631 -3.68 z m 77.0049996 0.073 c 0.914 1.8575 1.739 3.4502 2.476 4.7705 c -1.127 1.0069 -2.428 2.2401 -3.899 3.6961 c -0.219 -1.3267 -0.449 -2.9038 -0.676 -4.467 c 0.726 -1.4024 1.458 -2.8181 2.099 -3.9996 z m 7.031 1.0127 c 0.01 0.082 0.03 0.1715 0.05 0.2525 c -0.04 0.021 -0.09 0.053 -0.129 0.075 c 0.03 -0.1073 0.06 -0.2212 0.08 -0.3277 z m -82.27 0.2417 c 0.266 0.2245 0.533 0.4505 0.83 0.7199 c 0.365 0.3317 0.759 0.7047 1.173 1.1067 c -0.309 0.4885 -0.603 0.9453 -0.88 1.3538 c -0.225 0.3306 -0.43 0.6118 -0.634 0.8917 c -0.167 -0.6782 -0.316 -1.3388 -0.472 -2.0065 c 0 -0.6873 -0.01 -1.3651 -0.01 -2.0656 z m 72.125 0.075 c 0.122 0.8994 0.243 1.7259 0.363 2.5572 c -0.387 0.7473 -0.769 1.4908 -1.179 2.3019 c 0.136 -0.8377 0.237 -1.546 0.387 -2.4335 c 0.149 -0.8875 0.284 -1.5895 0.429 -2.4256 z m 11.493 0.1478 c 0.104 0 0.175 0.013 0.218 0.035 c 0.09 0.045 0.148 0.1297 0.172 0.3814 c 0.04 0.4662 -0.168 1.3711 -0.602 2.5142 c -0.1 -0.8551 -0.228 -1.7797 -0.387 -2.7641 c 0.06 -0.023 0.133 -0.066 0.185 -0.083 c 0.173 -0.057 0.31 -0.08 0.414 -0.083 z m -1.192 0.4539 c 0.221 1.3875 0.363 2.6116 0.454 3.7068 c -0.444 1.0054 -0.981 2.1132 -1.643 3.3522 c -0.111 -0.1238 -0.225 -0.2606 -0.346 -0.4136 c 0.08 -1.0542 0.154 -2.1307 0.217 -3.2394 c 0.302 -1.0672 0.585 -2.1071 0.851 -3.1293 c 0.167 -0.1053 0.321 -0.1955 0.467 -0.2767 z m -1.828 1.2437 c -0.03 0.6989 -0.08 1.3746 -0.116 2.0602 c -0.188 0.6609 -0.367 1.314 -0.566 1.985 c -0.191 -0.2898 -0.382 -0.5823 -0.59 -0.924 c -0.258 -0.4219 -0.534 -0.8904 -0.819 -1.3941 c 0.434 -0.3823 0.848 -0.7359 1.229 -1.0502 c 0.309 -0.2546 0.586 -0.4656 0.862 -0.6769 z m -72.74 0.2202 c 0.474 1.0434 0.998 2.2492 1.509 3.4087 c 0.136 1.2592 0.284 2.5669 0.395 3.7068 c -0.938 -1.0713 -1.898 -2.1774 -2.722 -3.0837 c 0.26 -1.1971 0.542 -2.635 0.818 -4.0318 z m -5.396 0.137 c 1.122 1.1071 2.415 2.4617 3.893 4.0802 c -0.471 2.1413 -0.917 3.9624 -1.334 5.4823 c -0.468 -0.2445 -0.921 -0.4767 -1.335 -0.6769 c -0.549 -0.2659 -1.035 -0.4824 -1.49 -0.6742 c -0.264 -0.9309 -0.529 -1.8648 -0.781 -2.807 c -0.252 -0.9418 -0.49 -1.8819 -0.725 -2.8203 c 0.298 -0.3934 0.612 -0.8257 0.953 -1.3297 c 0.258 -0.3802 0.535 -0.808 0.819 -1.2544 z m -5.0169996 1.4049 c 0.334 0.792 0.723 1.6423 1.151 2.541 c -0.05 0.039 -0.109 0.1 -0.156 0.1316 c -0.298 0.207 -0.499 0.2445 -0.593 0.2256 c -0.09 -0.019 -0.177 -0.085 -0.271 -0.3196 c -0.173 -0.4346 -0.225 -1.3606 -0.131 -2.5786 z m 75.2039996 0 c 0.209 1.4078 0.419 2.8562 0.622 4.064 c -0.867 0.8668 -1.879 1.9254 -2.867 2.952 c 0.165 -1.1337 0.376 -2.4335 0.571 -3.6853 c 0.566 -1.1335 1.151 -2.3114 1.674 -3.3307 z m 5.383 0.3921 c 0.261 0.4592 0.517 0.9 0.757 1.292 c 0.317 0.52 0.609 0.9654 0.888 1.3726 c -0.28 0.9262 -0.562 1.854 -0.859 2.7828 c -0.297 0.9291 -0.607 1.8494 -0.915 2.7667 c -0.464 0.1697 -0.958 0.3627 -1.518 0.6016 c -0.421 0.1804 -0.887 0.3932 -1.366 0.6151 c -0.346 -1.5386 -0.702 -3.3789 -1.072 -5.5413 c 1.554 -1.5465 2.911 -2.837 4.085 -3.8895 z m -77.831 1.4022 c 0.201 0.7883 0.396 1.5766 0.607 2.3664 c 0.211 0.7893 0.435 1.5681 0.655 2.3503 c -0.06 -0.02 -0.116 -0.048 -0.168 -0.067 c -0.387 -0.723 -0.756 -1.4255 -1.107 -2.114 c -0.04 -0.7746 -0.07 -1.5701 -0.1 -2.3933 c 0.03 -0.042 0.08 -0.098 0.112 -0.1423 z m 82.776 0.2337 c 0.03 1.2242 -0.06 2.1493 -0.256 2.5759 c -0.104 0.23 -0.191 0.2919 -0.287 0.3062 c -0.09 0.014 -0.29 -0.031 -0.579 -0.2525 c -0.05 -0.034 -0.103 -0.098 -0.151 -0.1396 c 0.474 -0.8802 0.9 -1.7126 1.273 -2.49 z m -83.497 0.5694 c 0 0.1099 0 0.2267 0 0.3358 c -0.04 -0.074 -0.08 -0.1551 -0.114 -0.2284 c 0.03 -0.031 0.07 -0.075 0.102 -0.1074 z m 7.393 0.6393 c 0.902 0.9969 1.947 2.2007 2.983 3.3925 c 0.147 1.5735 0.299 3.1602 0.397 4.5019 c -1.773 -1.0688 -3.33 -1.9597 -4.663 -2.6727 c 0.404 -1.4575 0.832 -3.1994 1.283 -5.2217 z m 73.263 0.462 c 0.03 0.046 0.07 0.1038 0.108 0.1477 c -0.06 0.8176 -0.138 1.6083 -0.215 2.3772 c -0.384 0.6739 -0.786 1.3612 -1.209 2.0683 c -0.06 0.016 -0.115 0.042 -0.168 0.059 c 0.258 -0.7711 0.516 -1.5395 0.765 -2.3181 c 0.249 -0.7787 0.482 -1.5564 0.719 -2.3342 z m -69.922 0.094 c 0.338 0.7794 0.635 1.4303 0.99 2.259 c 0.355 0.8288 0.62 1.4944 0.95 2.2778 c -0.59 -0.692 -1.137 -1.3254 -1.689 -1.9609 c -0.08 -0.8377 -0.159 -1.6713 -0.251 -2.5759 z m 70.607 0.7413 c 0.03 0.034 0.06 0.08 0.1 0.1128 c -0.03 0.07 -0.08 0.1468 -0.123 0.2176 c 0.01 -0.1073 0.02 -0.2222 0.03 -0.3304 z m -7.418 0.2875 c 0.353 2.0404 0.699 3.8008 1.034 5.2754 c -1.366 0.6487 -2.963 1.4664 -4.784 2.4497 c 0.162 -1.3351 0.387 -2.9133 0.608 -4.4777 c 1.093 -1.1415 2.193 -2.2943 3.142 -3.2474 z m -3.362 0.3921 c -0.136 0.9007 -0.253 1.7308 -0.373 2.5652 c -0.581 0.6089 -1.159 1.2141 -1.783 1.8776 c 0.367 -0.7666 0.665 -1.4187 1.059 -2.2295 c 0.394 -0.8121 0.722 -1.4497 1.097 -2.2133 z m -69.759 0.6688 c 0.05 0.096 0.105 0.1988 0.155 0.2955 c -0.05 -0.012 -0.1 -0.032 -0.141 -0.043 c 0 -0.081 0 -0.171 -0.01 -0.2525 z m -0.781 0.7521 c 0.06 0 0.139 0.026 0.201 0.035 c 0.08 0.9959 0.168 1.9274 0.274 2.7828 c -0.691 -1.0097 -1.1089996 -1.8408 -1.1759996 -2.3047 c -0.03 -0.2502 0 -0.3474 0.08 -0.4109 c 0.07 -0.063 0.2609996 -0.1318 0.6229996 -0.1021 z m 0.846 0.1773 c 0.16 0.045 0.332 0.096 0.518 0.1585 c 0.499 0.9314 1.019 1.8754 1.566 2.8419 c 0.321 1.0631 0.645 2.0916 0.974 3.097 c -0.08 0.1767 -0.164 0.335 -0.242 0.4808 c -0.934 -1.0461 -1.716 -1.995 -2.384 -2.866 c -0.17 -1.0862 -0.32 -2.311 -0.432 -3.7122 z m 10.21 0.6178 c 0.747 0.8665 1.591 1.8722 2.408 2.8392 c 0.486 1.1699 0.995 2.3837 1.422 3.4463 c -1.2 -0.7632 -2.433 -1.5496 -3.479 -2.1865 c -0.09 -1.2222 -0.223 -2.6807 -0.351 -4.099 z m -8.141 0.1585 c 0.317 0.1402 0.636 0.2823 0.997 0.4566 c 0.444 0.2157 0.929 0.4614 1.441 0.7307 c -0.158 0.5561 -0.317 1.0741 -0.467 1.5444 c -0.122 0.3813 -0.24 0.71 -0.356 1.0369 c -0.352 -0.6039 -0.681 -1.1949 -1.019 -1.7916 c -0.198 -0.6574 -0.401 -1.3047 -0.596 -1.977 z m 77.446 0.1934 c 0 0.08 -0.01 0.1682 -0.03 0.2471 c -0.04 0.01 -0.1 0.025 -0.143 0.035 c 0.06 -0.093 0.116 -0.1899 0.17 -0.282 z m 0.744 0.7843 c 0.363 -0.012 0.548 0.065 0.617 0.1317 c 0.07 0.067 0.108 0.1654 0.06 0.4136 c -0.09 0.4601 -0.547 1.2701 -1.285 2.2456 c 0.146 -0.8487 0.28 -1.7739 0.405 -2.764 c 0.06 -0.01 0.148 -0.025 0.204 -0.027 z m -0.854 0.137 c -0.179 1.3938 -0.386 2.6086 -0.606 3.6853 c -0.709 0.8389 -1.536 1.7519 -2.518 2.7532 c -0.07 -0.1501 -0.146 -0.3127 -0.221 -0.4942 c 0.377 -0.9882 0.75 -1.9998 1.122 -3.046 c 0.592 -0.9399 1.159 -1.857 1.703 -2.764 c 0.187 -0.053 0.359 -0.098 0.52 -0.1343 z m -10.228 0.129 c -0.196 1.4108 -0.401 2.8605 -0.546 4.0774 c -1.074 0.5865 -2.343 1.3147 -3.578 2.02 c 0.477 -1.0399 1.043 -2.2269 1.584 -3.3711 c 0.861 -0.9278 1.752 -1.8958 2.54 -2.7263 z m -64.106 0.2471 c 1.388 0.746 3.01 1.6813 4.883 2.8176 c 0.152 2.1874 0.237 4.0593 0.263 5.6355 c -0.517 -0.1024 -1.016 -0.1985 -1.468 -0.274 c -0.601 -0.1005 -1.131 -0.1725 -1.621 -0.2283 c -0.517 -0.8175 -1.032 -1.6393 -1.539 -2.4712 c -0.507 -0.8329 -0.999 -1.669 -1.49 -2.5035 c 0.175 -0.461 0.354 -0.9622 0.54 -1.5418 c 0.14 -0.4372 0.286 -0.9265 0.432 -1.4343 z m 72.23 0.3008 c -0.227 0.6617 -0.458 1.2981 -0.688 1.9447 c -0.365 0.5804 -0.723 1.1565 -1.103 1.7433 c -0.102 -0.3319 -0.203 -0.6665 -0.306 -1.0529 c -0.129 -0.4773 -0.261 -1.0027 -0.392 -1.566 c 0.524 -0.2444 1.02 -0.4667 1.474 -0.6608 c 0.367 -0.1571 0.691 -0.2833 1.015 -0.4083 z m -3.067 1.3457 c 0.123 0.5141 0.244 1.0099 0.363 1.4532 c 0.158 0.5881 0.311 1.0996 0.465 1.5687 c -0.53 0.8098 -1.062 1.6207 -1.609 2.4282 c -0.546 0.8073 -1.101 1.6035 -1.656 2.396 c -0.492 0.033 -1.022 0.079 -1.627 0.1504 c -0.457 0.054 -0.962 0.1262 -1.485 0.2042 c 0.102 -1.5735 0.277 -3.4382 0.532 -5.6167 c 1.928 -1.0472 3.595 -1.9042 5.017 -2.584 z m -73.582 1.1148 c 0.544 0.6656 1.155 1.3726 1.82 2.1139 c -0.03 0.052 -0.08 0.1257 -0.112 0.1692 c -0.229 0.2829 -0.409 0.3756 -0.506 0.3841 c -0.1 0.01 -0.192 -0.029 -0.348 -0.2283 c -0.29 -0.3682 -0.6 -1.243 -0.854 -2.4389 z m 13.322 0.043 c 0.544 0.6523 1.012 1.1932 1.586 1.8883 c 0.573 0.6945 1.015 1.2572 1.552 1.9152 c -0.76 -0.4973 -1.464 -0.9482 -2.172 -1.4022 c -0.311 -0.7818 -0.622 -1.5593 -0.966 -2.4013 z m -3.362 0.4082 c 1.146 0.7028 2.487 1.5654 3.818 2.4175 c 0.584 1.4673 1.175 2.9477 1.648 4.2064 c -2.003 -0.5259 -3.746 -0.9459 -5.227 -1.2544 c -0.02 -1.5119 -0.102 -3.303 -0.239 -5.3695 z m -6.808 0.497 c 0.414 0.6996 0.824 1.4 1.249 2.0978 c 0.424 0.6973 0.858 1.3829 1.291 2.0709 c -0.06 0 -0.125 -0.013 -0.18 -0.016 c -0.577 -0.5865 -1.128 -1.1584 -1.659 -1.7217 c -0.257 -0.7297 -0.511 -1.482 -0.769 -2.2617 c 0.02 -0.05 0.04 -0.1169 0.07 -0.1692 z m 61.399 0.3196 c -0.384 0.8229 -0.728 1.5831 -1.077 2.3476 c -0.728 0.4199 -1.452 0.8369 -2.236 1.2974 c 0.567 -0.6314 1.035 -1.1711 1.641 -1.8373 c 0.605 -0.6658 1.098 -1.183 1.672 -1.8077 z m 3.342 0.5641 c -0.234 2.0573 -0.399 3.8444 -0.494 5.3534 c -1.492 0.2374 -3.253 0.5697 -5.277 0.9991 c 0.532 -1.2356 1.19 -2.6868 1.844 -4.1258 c 1.368 -0.7869 2.75 -1.5799 3.927 -2.2267 z m 9.969 0.022 c -0.31 1.1822 -0.66 2.042 -0.966 2.3959 c -0.166 0.1911 -0.268 0.2253 -0.363 0.2123 c -0.09 -0.013 -0.271 -0.1122 -0.486 -0.4056 c -0.03 -0.046 -0.07 -0.1234 -0.105 -0.1773 c 0.701 -0.7093 1.345 -1.386 1.92 -2.0253 z m -75.177 0.07 c 0.04 0.1025 0.07 0.2125 0.101 0.3142 c -0.06 -0.059 -0.115 -0.1236 -0.168 -0.1826 c 0.02 -0.039 0.04 -0.091 0.07 -0.1316 z m 71.985 0.7279 c 0.02 0.053 0.04 0.1205 0.06 0.1719 c -0.293 0.7658 -0.582 1.5055 -0.872 2.2214 c -0.559 0.5388 -1.141 1.084 -1.745 1.6439 c -0.06 0 -0.123 0.01 -0.178 0.01 c 0.464 -0.6671 0.93 -1.3326 1.389 -2.0093 c 0.457 -0.6768 0.9 -1.3568 1.347 -2.036 z m -59.993 0.7843 c 0.962 0.6209 2.054 1.3516 3.109 2.0495 c 0.795 0.9855 1.626 2.005 2.336 2.9037 c -1.367 -0.3941 -2.772 -0.8036 -3.955 -1.1201 c -0.426 -1.1479 -0.968 -2.5088 -1.49 -3.8331 z m 60.412 0.2123 c 0.01 0.042 0.04 0.094 0.06 0.1342 c -0.06 0.057 -0.122 0.1175 -0.18 0.1746 c 0.04 -0.1 0.08 -0.208 0.119 -0.3088 z m -12.047 0.9374 c -0.584 1.2986 -1.191 2.631 -1.672 3.7578 c -1.197 0.26 -2.621 0.6034 -4.006 0.9321 c 0.753 -0.8651 1.63 -1.8457 2.473 -2.7936 c 1.088 -0.6472 2.216 -1.3217 3.205 -1.8963 z m -58.666 0.2605 c 0.08 0.079 0.161 0.162 0.239 0.2418 c -0.05 0 -0.107 0 -0.153 0 c -0.03 -0.077 -0.06 -0.164 -0.09 -0.2418 z m 0.328 0.8757 c 0.167 0 0.345 0 0.542 0.01 c 0.744 0.7544 1.508 1.516 2.306 2.2912 c 0.607 0.9263 1.204 1.8194 1.802 2.6888 c -0.03 0.195 -0.06 0.3709 -0.09 0.5345 c -1.194 -0.7422 -2.211 -1.4356 -3.099 -2.0844 c -0.468 -0.9934 -0.955 -2.1245 -1.457 -3.4355 z m -0.658 0.046 c 0.355 0.934 0.704 1.8011 1.047 2.592 c -0.948 -0.774 -1.583 -1.4539 -1.777 -1.8802 c -0.105 -0.2299 -0.1 -0.335 -0.04 -0.4164 c 0.06 -0.081 0.217 -0.2003 0.573 -0.274 c 0.06 -0.011 0.139 -0.012 0.201 -0.022 z m 2.862 0.1155 c 0.344 0.045 0.69 0.09 1.085 0.1558 c 0.487 0.081 1.019 0.1817 1.586 0.2954 c 0 0.5788 0 1.1202 0 1.6144 c 0 0.4001 -0.03 0.7492 -0.06 1.0959 c -0.508 -0.4818 -0.99 -0.9582 -1.484 -1.4371 c -0.375 -0.5733 -0.75 -1.1357 -1.125 -1.7244 z m 3.299 0.5855 c 1.543 0.3248 3.364 0.7619 5.482 1.3243 c 0.762 2.0567 1.37 3.8295 1.839 5.3345 c -0.525 0.048 -1.031 0.096 -1.487 0.1505 c -0.605 0.073 -1.135 0.1542 -1.622 0.239 c -0.725 -0.639 -1.451 -1.2813 -2.171 -1.9367 c -0.721 -0.6551 -1.428 -1.3182 -2.132 -1.9796 c 0.03 -0.4923 0.06 -1.0264 0.08 -1.6358 c 0.01 -0.4587 0.01 -0.9681 0.01 -1.4962 z m 63.053 0.022 c -0.03 0.075 -0.06 0.1593 -0.1 0.2337 c -0.05 0 -0.103 0 -0.151 -0.01 c 0.08 -0.075 0.168 -0.1511 0.247 -0.2256 z m -53.72 0.1585 c 0.706 0.4726 1.309 0.859 2.056 1.3645 c 0.746 0.5055 1.328 0.9217 2.029 1.4022 c -0.871 -0.2633 -1.675 -0.4994 -2.483 -0.736 c -0.519 -0.6618 -1.036 -1.3203 -1.602 -2.0307 z m 52.81 0.6769 c 0.197 0 0.376 0.01 0.543 0.019 c -0.564 1.2856 -1.101 2.3928 -1.617 3.363 c -0.917 0.6061 -1.969 1.249 -3.197 1.9339 c -0.02 -0.1644 -0.05 -0.3417 -0.07 -0.5372 c 0.639 -0.843 1.282 -1.7084 1.935 -2.6081 c 0.831 -0.7339 1.63 -1.4546 2.406 -2.1704 z m -1.667 0.075 c -0.404 0.5719 -0.804 1.1171 -1.208 1.6734 c -0.515 0.4541 -1.019 0.9056 -1.549 1.3619 c 0 -0.3473 0 -0.6958 0 -1.0959 c 0.01 -0.4934 0.04 -1.0376 0.06 -1.6144 c 0.573 -0.087 1.112 -0.162 1.603 -0.2202 c 0.397 -0.047 0.744 -0.076 1.089 -0.1048 z m 2.865 0.022 c 0.06 0.012 0.147 0.018 0.201 0.032 c 0.352 0.091 0.508 0.2172 0.556 0.3009 c 0.05 0.084 0.06 0.189 -0.06 0.4136 c -0.215 0.4166 -0.882 1.0635 -1.866 1.7916 c 0.38 -0.7739 0.771 -1.6221 1.171 -2.5383 z m -15.516 0.1397 c -0.601 0.6836 -1.147 1.3182 -1.699 1.9554 c -0.818 0.1977 -1.63 0.3939 -2.512 0.6151 c 0.722 -0.4459 1.322 -0.8341 2.091 -1.3027 c 0.77 -0.4701 1.391 -0.8287 2.12 -1.2678 z m 9.327 0.2659 c -0.03 0.5282 -0.06 1.0368 -0.06 1.4961 c -0.01 0.6102 -0.01 1.1446 0 1.6386 c -0.735 0.6273 -1.474 1.2544 -2.225 1.8748 c -0.752 0.6209 -1.508 1.2277 -2.263 1.8319 c -0.482 -0.1075 -1.006 -0.2126 -1.606 -0.3142 c -0.452 -0.077 -0.957 -0.1504 -1.479 -0.223 c 0.541 -1.481 1.233 -3.2223 2.091 -5.2405 c 2.143 -0.461 3.982 -0.8127 5.539 -1.0637 z m -50.928 0.1612 c 1.296 0.3507 2.825 0.7988 4.341 1.2409 c 0.974 1.2442 1.96 2.4973 2.768 3.5725 c -2.068 0.06 -3.861 0.1502 -5.367 0.2713 c -0.447 -1.4442 -1.03 -3.1407 -1.742 -5.0847 z m 44.641 1.0609 c -0.806 1.9084 -1.466 3.5773 -1.981 4.9988 c -1.5 -0.1928 -3.284 -0.3705 -5.348 -0.5291 c 0.858 -1.0347 1.9 -2.2403 2.931 -3.4355 c 1.535 -0.3697 3.085 -0.7454 4.398 -1.0342 z m -39.277 0.4728 c 1.097 0.325 2.353 0.7154 3.561 1.0879 c 1.041 0.7208 2.123 1.4655 3.056 2.1273 c -1.422 0.01 -2.883 0.011 -4.108 0.04 c -0.733 -0.9805 -1.636 -2.1326 -2.509 -3.2555 z m 33.845 0.8058 c -0.926 1.0808 -1.884 2.187 -2.663 3.132 c -1.22 -0.088 -2.681 -0.1586 -4.102 -0.2337 c 0.964 -0.617 2.081 -1.3114 3.155 -1.9823 c 1.226 -0.3145 2.499 -0.6435 3.61 -0.916 z m -48.899 0.029 c 0.713 0.487 1.497 0.9945 2.346 1.5204 c -0.02 0.059 -0.03 0.142 -0.06 0.1934 c -0.14 0.3358 -0.286 0.4751 -0.375 0.5103 c -0.09 0.035 -0.198 0.026 -0.403 -0.1209 c -0.381 -0.2721 -0.928 -1.0245 -1.509 -2.1032 z m 3.297 0.027 c 0.593 0.5543 1.184 1.1107 1.788 1.66 c 0.605 0.5502 1.214 1.0859 1.823 1.6251 c -0.06 0.012 -0.124 0.023 -0.177 0.035 c -0.718 -0.4004 -1.41 -0.7937 -2.078 -1.1846 c -0.452 -0.6282 -0.908 -1.279 -1.375 -1.9554 c 0 -0.054 0.01 -0.1237 0.02 -0.18 z m 17.333 0.8516 c 0.809 0.2537 1.495 0.4539 2.351 0.7279 c 0.858 0.2742 1.534 0.5077 2.342 0.7708 c -0.909 -0.01 -1.745 -0.01 -2.586 -0.01 c -0.684 -0.4881 -1.364 -0.9723 -2.107 -1.4934 z m -17.508 0.2148 c 0.06 0.089 0.127 0.1835 0.189 0.2713 c -0.07 -0.042 -0.149 -0.084 -0.218 -0.1263 c 0.01 -0.043 0.01 -0.1 0.03 -0.145 z m 57.48 0.2982 c 0 0.055 0 0.1236 0.01 0.1772 c -0.499 0.6545 -0.986 1.2842 -1.469 1.891 c -0.685 0.3586 -1.395 0.7167 -2.131 1.0825 c -0.06 -0.015 -0.12 -0.026 -0.174 -0.04 c 0.634 -0.5095 1.267 -1.0158 1.897 -1.5364 c 0.631 -0.5203 1.247 -1.0483 1.867 -1.574 z m -17.351 0.022 c -0.769 0.4863 -1.472 0.9407 -2.18 1.3967 c -0.841 -0.041 -1.677 -0.082 -2.585 -0.1182 c 0.82 -0.2248 1.507 -0.4272 2.378 -0.6608 c 0.87 -0.2332 1.565 -0.4024 2.387 -0.6177 z m 20.643 0.1101 c -0.631 1.0485 -1.212 1.7745 -1.606 2.028 c -0.212 0.1367 -0.32 0.1415 -0.407 0.1021 c -0.09 -0.039 -0.229 -0.1844 -0.353 -0.5265 c -0.01 -0.052 -0.03 -0.1358 -0.06 -0.1961 c 0.874 -0.4843 1.683 -0.9554 2.416 -1.4075 z m -3.171 0.9401 c 0 0.046 0.01 0.1034 0.02 0.1478 c -0.07 0.039 -0.151 0.079 -0.223 0.1181 c 0.06 -0.086 0.135 -0.1793 0.202 -0.2659 z m -36.478 0.5265 c 0.931 0 2.071 0.033 3.078 0.046 c 1.202 0.3991 2.452 0.8094 3.535 1.1819 c -1.364 0.4084 -2.769 0.8215 -3.935 1.1953 c -0.981 -0.7346 -2.172 -1.5858 -3.327 -2.4175 c 0.235 0 0.41 -0.01 0.649 -0.01 z m -1.712 0.013 c 1.286 0.9194 2.584 1.8443 3.662 2.6484 c -1.969 0.6411 -3.663 1.2345 -5.074 1.7755 c -0.836 -1.2601 -1.871 -2.7238 -3.104 -4.389 c 1.344 -0.029 2.937 -0.032 4.516 -0.035 z m -5.278 0.056 c 1.309 1.7584 2.393 3.2872 3.267 4.5985 c -0.493 0.1944 -0.966 0.3852 -1.388 0.5668 c -0.559 0.2405 -1.041 0.4641 -1.485 0.6822 c -0.875 -0.4088 -1.754 -0.8204 -2.63 -1.2463 c -0.877 -0.426 -1.744 -0.8608 -2.607 -1.2973 c -0.102 -0.4829 -0.221 -1.0042 -0.379 -1.5929 c -0.118 -0.4438 -0.262 -0.9332 -0.414 -1.4397 c 1.572 -0.1231 3.444 -0.2138 5.636 -0.2713 z m 12.175 0.01 c 0.849 0.015 1.563 0.016 2.462 0.038 c 0.9 0.022 1.616 0.056 2.465 0.081 c -0.875 0.2495 -1.677 0.4847 -2.484 0.7225 c -0.794 -0.2757 -1.582 -0.5502 -2.443 -0.8407 z m 7.029 0.188 c 1.265 0.044 2.58 0.082 3.724 0.1343 c -1.194 0.7764 -2.423 1.5715 -3.437 2.259 c -1.147 -0.4286 -2.529 -0.9108 -3.871 -1.3833 c 1.098 -0.3202 2.365 -0.669 3.584 -1.01 z m -25.478 0.1263 c 0.167 0.5537 0.316 1.0752 0.443 1.5525 c 0.103 0.3863 0.182 0.7256 0.259 1.0637 c -0.622 -0.3187 -1.22 -0.6388 -1.828 -0.9589 c -0.522 -0.4449 -1.04 -0.8806 -1.567 -1.3404 c 0.344 -0.054 0.689 -0.1051 1.087 -0.1531 c 0.491 -0.059 1.029 -0.1132 1.606 -0.1638 z m -5.407 0.043 c 0.09 0.053 0.196 0.1078 0.289 0.1611 c -0.04 0.014 -0.1 0.025 -0.141 0.04 c -0.05 -0.064 -0.1 -0.1367 -0.148 -0.2014 z m 35.671 0.024 c 1.577 0.078 3.168 0.1568 4.508 0.2498 c -1.309 1.6028 -2.413 3.0153 -3.307 4.2332 c -1.384 -0.6076 -3.047 -1.2778 -4.983 -2.0118 c 1.115 -0.7517 2.455 -1.6143 3.782 -2.4712 z m 5.273 0.3062 c 2.187 0.1619 4.051 0.3447 5.614 0.5426 c -0.175 0.4985 -0.342 0.9807 -0.48 1.4182 c -0.186 0.5812 -0.332 1.0935 -0.457 1.5714 c -0.883 0.3949 -1.77 0.7899 -2.666 1.1738 c -0.895 0.3835 -1.791 0.7509 -2.684 1.1174 c -0.433 -0.2393 -0.905 -0.4849 -1.453 -0.7521 c -0.413 -0.2012 -0.876 -0.4166 -1.358 -0.6339 c 0.936 -1.2687 2.093 -2.7427 3.484 -4.4374 z m -39.868 0.2659 c 0.923 0.5122 1.869 1.025 2.849 1.5418 c 0.846 0.7201 1.676 1.4083 2.496 2.0763 c 0.03 0.1951 0.05 0.3737 0.06 0.54 c -1.353 -0.3758 -2.526 -0.7505 -3.56 -1.1228 c -0.729 -0.8216 -1.514 -1.7732 -2.365 -2.8903 c 0.158 -0.049 0.33 -0.097 0.52 -0.145 z m 46.116 0.3546 c 0.572 0.078 1.11 0.1593 1.597 0.2417 c 0.395 0.067 0.739 0.134 1.079 0.2042 c -0.547 0.4334 -1.085 0.8436 -1.627 1.2624 c -0.622 0.2911 -1.236 0.5841 -1.874 0.873 c 0.09 -0.3342 0.188 -0.6691 0.309 -1.0503 c 0.15 -0.471 0.322 -0.9856 0.516 -1.531 z m -47.254 0.022 c 0.605 0.7977 1.185 1.5311 1.737 2.1945 c -1.129 -0.4761 -1.932 -0.9509 -2.239 -1.3054 c -0.165 -0.1911 -0.185 -0.2943 -0.158 -0.3868 c 0.03 -0.092 0.152 -0.2534 0.472 -0.4244 c 0.05 -0.026 0.13 -0.052 0.188 -0.078 z m 26.348 0.1745 c 1.49 0.5195 2.995 1.0425 4.255 1.5097 c -1.708 1.1699 -3.166 2.215 -4.368 3.1319 c -1.156 -0.9729 -2.562 -2.0866 -4.213 -3.3361 c 1.283 -0.4068 2.811 -0.8574 4.326 -1.3055 z m 26.304 0.1048 c -0.06 0.063 -0.107 0.134 -0.158 0.1961 c -0.04 -0.017 -0.1 -0.032 -0.139 -0.048 c 0.1 -0.049 0.201 -0.099 0.297 -0.1477 z m -1.103 0.5453 c 0.188 0.057 0.356 0.1124 0.513 0.1692 c -0.904 1.0752 -1.732 1.9861 -2.5 2.7721 c -1.049 0.3225 -2.239 0.6427 -3.608 0.9535 c 0.02 -0.1648 0.05 -0.3418 0.08 -0.5345 c 0.849 -0.6269 1.709 -1.2754 2.586 -1.9528 c 1.006 -0.4709 1.978 -0.9385 2.926 -1.4075 z m 1.119 0.4298 c 0.06 0.029 0.138 0.06 0.186 0.089 c 0.313 0.1861 0.429 0.3495 0.451 0.4432 c 0.02 0.094 0 0.1985 -0.178 0.3814 c -0.323 0.339 -1.144 0.7715 -2.292 1.1927 c 0.582 -0.6348 1.193 -1.3403 1.833 -2.1059 z m -31.372 0.4647 c 1.749 1.3174 3.218 2.4779 4.426 3.4892 c -0.416 0.3243 -0.817 0.6422 -1.17 0.9347 c -0.47 0.3884 -0.869 0.7405 -1.232 1.0745 c -0.957 -0.1453 -1.915 -0.2923 -2.875 -0.454 c -0.962 -0.1617 -1.915 -0.3375 -2.866 -0.513 c -0.234 -0.4346 -0.496 -0.8976 -0.813 -1.4183 c -0.238 -0.392 -0.512 -0.8223 -0.8 -1.2651 c 1.473 -0.561 3.242 -1.1752 5.33 -1.848 z m 10.021 0.2363 c 2.052 0.7716 3.791 1.47 5.236 2.1005 c -0.31 0.4293 -0.603 0.8468 -0.859 1.2276 c -0.342 0.5044 -0.628 0.9555 -0.881 1.3779 c -0.959 0.1301 -1.919 0.2604 -2.887 0.3761 c -0.967 0.1157 -1.932 0.2173 -2.894 0.317 c -0.347 -0.3514 -0.73 -0.7228 -1.181 -1.1336 c -0.339 -0.3096 -0.723 -0.6439 -1.125 -0.9884 c 1.256 -0.9534 2.779 -2.0434 4.591 -3.2771 z m -24.27 0.7871 c 0.727 0.3649 1.451 0.7306 2.186 1.0878 c 0.734 0.357 1.468 0.6995 2.204 1.0449 c -0.05 0.028 -0.116 0.056 -0.164 0.083 c -0.8 -0.1815 -1.572 -0.3645 -2.322 -0.5507 c -0.61 -0.4753 -1.231 -0.9705 -1.869 -1.488 c 0 -0.054 -0.02 -0.1215 -0.03 -0.1773 z m -3.168 0.9025 c 0.821 0.2666 1.715 0.5328 2.68 0.7978 c 0 0.062 0 0.1463 0 0.2014 c -0.04 0.3616 -0.142 0.5373 -0.218 0.5963 c -0.08 0.059 -0.179 0.08 -0.419 0 c -0.442 -0.1535 -1.179 -0.722 -2.04 -1.5929 z m 41.622 0.013 c -0.01 0.056 -0.03 0.1231 -0.04 0.1773 c -0.66 0.4855 -1.304 0.9492 -1.936 1.3941 c -0.759 0.1506 -1.541 0.2968 -2.352 0.4405 c -0.05 -0.029 -0.107 -0.062 -0.155 -0.091 c 0.751 -0.3101 1.502 -0.6159 2.253 -0.9375 c 0.75 -0.3217 1.491 -0.6533 2.233 -0.9831 z m -30.136 0.137 c 0.316 0.4842 0.607 0.9397 0.864 1.3618 c 0.208 0.3422 0.378 0.6479 0.548 0.9509 c -0.688 -0.1301 -1.352 -0.2697 -2.025 -0.4056 c -0.626 -0.2798 -1.247 -0.5506 -1.882 -0.8434 c 0.315 -0.1484 0.631 -0.2958 0.999 -0.454 c 0.454 -0.1948 0.958 -0.3989 1.496 -0.6097 z m -8.183 0.016 c 0.09 0.069 0.175 0.144 0.26 0.2122 c -0.08 -0.021 -0.168 -0.043 -0.247 -0.064 c 0 -0.045 0 -0.1012 -0.01 -0.1477 z m 29.958 0.5023 c 0.528 0.2361 1.02 0.4633 1.464 0.6796 c 0.359 0.1755 0.67 0.3391 0.976 0.5023 c -0.648 0.2624 -1.282 0.5049 -1.922 0.7547 c -0.678 0.1037 -1.347 0.209 -2.04 0.3062 c 0.184 -0.2945 0.372 -0.5894 0.596 -0.9213 c 0.276 -0.4092 0.587 -0.8531 0.926 -1.3215 z m 11.474 0.4002 c -0.898 0.8266 -1.658 1.3588 -2.107 1.4908 c -0.242 0.071 -0.345 0.044 -0.419 -0.019 c -0.07 -0.062 -0.165 -0.2413 -0.188 -0.6044 c 0 -0.055 0 -0.1388 0 -0.2014 c 0.972 -0.218 1.879 -0.4397 2.708 -0.6662 z m -3.299 0.01 c 0 0.047 -0.01 0.1027 -0.02 0.1477 c -0.08 0.017 -0.167 0.034 -0.246 0.051 c 0.09 -0.064 0.18 -0.1344 0.268 -0.1987 z m -35.129 0.6366 c 0.107 0.025 0.222 0.05 0.33 0.075 c -0.04 0.026 -0.09 0.054 -0.127 0.081 c -0.06 -0.049 -0.137 -0.1059 -0.203 -0.1558 z m 16.028 0.2632 c 0.439 0.3757 0.851 0.7335 1.215 1.0664 c 0.296 0.2697 0.547 0.512 0.795 0.7548 c -0.698 0.069 -1.375 0.1232 -2.062 0.1827 c -0.677 -0.092 -1.348 -0.1777 -2.038 -0.2794 c 0.26 -0.2303 0.522 -0.4624 0.831 -0.7172 c 0.379 -0.3146 0.802 -0.6536 1.259 -1.0073 z m -14.823 0.01 c 1.032 0.2322 2.087 0.4594 3.176 0.6796 c 1.012 0.451 1.997 0.8781 2.97 1.2867 c 0.08 0.1807 0.149 0.3457 0.209 0.5023 c -1.404 0.021 -2.635 -0.012 -3.732 -0.078 c -0.93 -0.5824 -1.952 -1.2722 -3.082 -2.1032 c 0.139 -0.092 0.289 -0.1878 0.459 -0.2875 z m 30.848 0.4943 c -0.07 0.046 -0.143 0.099 -0.21 0.145 c -0.04 -0.028 -0.08 -0.06 -0.121 -0.089 c 0.108 -0.02 0.223 -0.037 0.331 -0.056 z m -31.836 0.1907 c 0.804 0.5939 1.566 1.1317 2.282 1.6117 c -1.216 -0.1384 -2.118 -0.3645 -2.513 -0.6179 c -0.213 -0.1366 -0.259 -0.2314 -0.26 -0.3277 c 0 -0.096 0.07 -0.2853 0.333 -0.5398 c 0.04 -0.039 0.111 -0.085 0.158 -0.1263 z m 30.619 0.022 c 0.165 0.1078 0.312 0.21 0.446 0.3089 c -1.17 0.7773 -2.22 1.4177 -3.179 1.9555 c -1.098 0.014 -2.329 -0.017 -3.732 -0.1048 c 0.07 -0.1525 0.142 -0.3135 0.232 -0.4888 c 0.991 -0.3622 1.998 -0.7415 3.031 -1.1443 c 1.097 -0.1681 2.161 -0.3438 3.202 -0.5265 z m -23.083 0.6205 c 0.799 0.1453 1.595 0.2943 2.401 0.4298 c 0.805 0.1355 1.607 0.2572 2.41 0.3814 c -0.04 0.04 -0.09 0.085 -0.128 0.1236 c -0.822 0.052 -1.616 0.093 -2.39 0.1262 c -0.719 -0.2834 -1.453 -0.581 -2.209 -0.8971 c -0.02 -0.05 -0.06 -0.1122 -0.08 -0.1639 z m 24.036 0.1075 c 0.05 0.044 0.115 0.096 0.153 0.1369 c 0.248 0.2667 0.312 0.4572 0.307 0.5534 c 0 0.096 -0.06 0.1879 -0.274 0.3142 c -0.406 0.2342 -1.317 0.4192 -2.537 0.4997 c 0.736 -0.4448 1.522 -0.9502 2.351 -1.5042 z m -7.555 0.2847 c -0.03 0.05 -0.06 0.1094 -0.09 0.1584 c -0.772 0.2802 -1.52 0.5432 -2.252 0.7925 c -0.771 -0.07 -1.56 -0.1489 -2.376 -0.2391 c -0.03 -0.041 -0.09 -0.089 -0.126 -0.1316 c 0.807 -0.086 1.613 -0.169 2.424 -0.266 c 0.811 -0.097 1.616 -0.207 2.421 -0.3142 z m -16.051 0.599 c 0.1 0.042 0.206 0.088 0.305 0.1289 c -0.08 0 -0.171 0.01 -0.251 0.01 c -0.02 -0.042 -0.03 -0.094 -0.06 -0.137 z m 7.783 0.3116 c 1.1 0.1481 2.171 0.2792 3.222 0.3975 c 0.127 0.1496 0.237 0.2892 0.338 0.4217 c -1.342 0.4161 -2.532 0.7318 -3.603 0.9777 c -1.057 -0.2964 -2.23 -0.6707 -3.549 -1.1496 c 0.106 -0.1272 0.225 -0.26 0.359 -0.4029 c 1.054 -0.068 2.128 -0.149 3.233 -0.2444 z m 7.791 0.056 c -0.01 0.043 -0.05 0.095 -0.06 0.137 c -0.08 -0.01 -0.168 -0.015 -0.249 -0.022 c 0.102 -0.036 0.209 -0.079 0.311 -0.1155 z m -11.923 0.2444 c -0.03 0.036 -0.07 0.078 -0.1 0.1128 c -0.08 -0.028 -0.159 -0.062 -0.236 -0.091 c 0.108 -0.01 0.224 -0.015 0.333 -0.022 z m -6.87 0.1558 c 0.862 0.025 1.798 0.028 2.798 0.011 c 0.01 0.061 0.04 0.1412 0.06 0.1961 c 0.06 0.3581 0.01 0.5532 -0.04 0.6312 c -0.06 0.078 -0.151 0.1276 -0.403 0.1155 c -0.469 -0.023 -1.337 -0.3594 -2.408 -0.9536 z m 15.118 0.04 c 0.108 0.011 0.223 0.026 0.329 0.038 c -0.08 0.025 -0.161 0.056 -0.239 0.081 c -0.03 -0.037 -0.06 -0.08 -0.09 -0.1182 z m 4.059 0.3599 c 0.996 0.065 1.93 0.1071 2.791 0.1236 c -1.097 0.5413 -1.979 0.8379 -2.447 0.838 c -0.253 0.0001 -0.345 -0.054 -0.398 -0.1343 c -0.06 -0.081 -0.09 -0.2793 0 -0.6339 c 0.01 -0.055 0.05 -0.1327 0.06 -0.1934 z m -12.165 0.3196 c 0.936 0.3428 1.822 0.6468 2.642 0.9053 c -1.204 0.2094 -2.134 0.2446 -2.583 0.1128 c -0.242 -0.071 -0.313 -0.1496 -0.34 -0.2418 c -0.03 -0.092 -0.01 -0.2922 0.166 -0.6097 c 0.03 -0.049 0.08 -0.1138 0.115 -0.1666 z m 7.92 0.1881 c 0.03 0.054 0.08 0.1221 0.108 0.1719 c 0.161 0.3255 0.168 0.527 0.136 0.6178 c -0.03 0.091 -0.105 0.1661 -0.351 0.2256 c -0.455 0.1103 -1.38 0.03 -2.572 -0.2364 c 0.832 -0.2189 1.728 -0.4814 2.679 -0.7789 z" stroke-linecap="round" />
</g>
<g transform="matrix(1,0,0,1,250.0730377453985,199.6275219028142)" style=""  ><path fill="#374140" opacity="1" d="M-7.34-10.37Q-7.28-10.37-7.28-10.17Q-7.28-9.97-7.34-9.97L-7.34-9.97Q-8.54-9.97-9.78-9.09Q-11.01-8.20-11.98-6.67L-11.98-6.67L-16.45 0.20L-16.45 7.78Q-16.45 8.82-16.25 9.28Q-16.05 9.75-15.47 9.92Q-14.88 10.08-13.62 10.08L-13.62 10.08Q-13.52 10.08-13.52 10.28Q-13.52 10.48-13.62 10.48L-13.62 10.48Q-14.65 10.48-15.22 10.45L-15.22 10.45L-17.55 10.42L-19.86 10.45Q-20.46 10.48-21.49 10.48L-21.49 10.48Q-21.59 10.48-21.59 10.28Q-21.59 10.08-21.49 10.08L-21.49 10.08Q-20.22 10.08-19.64 9.92Q-19.06 9.75-18.84 9.27Q-18.62 8.78-18.62 7.78L-18.62 7.78L-18.62 0.74L-24.16-7.37Q-25.10-8.84-25.93-9.41Q-26.76-9.97-27.87-9.97L-27.87-9.97Q-27.97-9.97-27.97-10.17Q-27.97-10.37-27.87-10.37L-27.87-10.37Q-27.47-10.37-26.66-10.31L-26.66-10.31L-25.50-10.27Q-24.36-10.27-22.63-10.34L-22.63-10.34L-20.82-10.37Q-20.76-10.37-20.76-10.17Q-20.76-9.97-20.82-9.97L-20.82-9.97Q-22.56-9.97-22.56-9.27L-22.56-9.27Q-22.56-8.91-22.23-8.44L-22.23-8.44L-16.85-0.56L-12.78-6.80Q-12.05-7.97-12.05-8.77L-12.05-8.77Q-12.05-9.97-13.85-9.97L-13.85-9.97Q-13.92-9.97-13.92-10.17Q-13.92-10.37-13.85-10.37L-13.85-10.37L-12.28-10.34Q-11.01-10.27-9.95-10.27L-9.95-10.27Q-9.38-10.27-8.58-10.34L-8.58-10.34L-7.34-10.37Z"/><path fill="#374140" opacity="1" d="M15.99-10.37Q16.09-10.37 16.09-10.17Q16.09-9.97 15.99-9.97L15.99-9.97Q14.58-9.97 13.95-9.21Q13.32-8.44 13.32-6.70L13.32-6.70L13.32 10.88Q13.32 10.95 13.15 10.98Q12.98 11.02 12.92 10.95L12.92 10.95L-2.44-7.64L-2.74-7.97L-2.74 6.85Q-2.74 8.58-2.12 9.33Q-1.50 10.08-0.13 10.08L-0.13 10.08Q-0.03 10.08-0.03 10.28Q-0.03 10.48-0.13 10.48L-0.13 10.48Q-0.97 10.48-1.40 10.45L-1.40 10.45L-3.07 10.42L-4.77 10.45Q-5.24 10.48-6.14 10.48L-6.14 10.48Q-6.21 10.48-6.21 10.28Q-6.21 10.08-6.14 10.08L-6.14 10.08Q-4.71 10.08-4.10 9.33Q-3.50 8.58-3.50 6.85L-3.50 6.85L-3.50-8.77Q-4.81-9.97-6.14-9.97L-6.14-9.97Q-6.24-9.97-6.24-10.17Q-6.24-10.37-6.14-10.37L-6.14-10.37L-4.91-10.34Q-4.51-10.31-3.80-10.31L-3.80-10.31Q-3.07-10.31-2.60-10.34Q-2.14-10.37-1.87-10.37L-1.87-10.37Q-1.60-10.37-1.49-10.26Q-1.37-10.14-1.10-9.74L-1.10-9.74Q-0.70-9.14-0.30-8.64L-0.30-8.64L12.55 7.15L12.55-6.70Q12.55-8.44 11.96-9.21Q11.38-9.97 10.01-9.97L10.01-9.97Q9.95-9.97 9.95-10.17Q9.95-10.37 10.01-10.37L10.01-10.37L11.31-10.34Q12.31-10.27 12.95-10.27L12.95-10.27Q13.55-10.27 14.62-10.34L14.62-10.34L15.99-10.37Z"/><path fill="#374140" opacity="1" d="M22.29-13.31Q21.59-13.31 21.21-13.69Q20.82-14.08 20.82-14.75L20.82-14.75Q20.82-15.41 21.21-15.78Q21.59-16.15 22.29-16.15L22.29-16.15Q22.96-16.15 23.33-15.78Q23.69-15.41 23.69-14.75L23.69-14.75Q23.69-14.08 23.33-13.69Q22.96-13.31 22.29-13.31L22.29-13.31ZM23.39 7.78Q23.39 8.78 23.59 9.27Q23.79 9.75 24.38 9.92Q24.96 10.08 26.23 10.08L26.23 10.08Q26.33 10.08 26.33 10.28Q26.33 10.48 26.23 10.48L26.23 10.48Q25.23 10.48 24.63 10.45L24.63 10.45L22.26 10.42L19.96 10.45Q19.36 10.48 18.32 10.48L18.32 10.48Q18.22 10.48 18.22 10.28Q18.22 10.08 18.32 10.08L18.32 10.08Q19.59 10.08 20.17 9.92Q20.76 9.75 20.97 9.27Q21.19 8.78 21.19 7.78L21.19 7.78L21.19-7.67Q21.19-8.67 20.97-9.14Q20.76-9.61 20.17-9.79Q19.59-9.97 18.32-9.97L18.32-9.97Q18.22-9.97 18.22-10.17Q18.22-10.37 18.32-10.37L18.32-10.37L19.96-10.34Q21.36-10.27 22.26-10.27L22.26-10.27Q23.26-10.27 24.66-10.34L24.66-10.34L26.23-10.37Q26.33-10.37 26.33-10.17Q26.33-9.97 26.23-9.97L26.23-9.97Q25.00-9.97 24.41-9.77Q23.83-9.57 23.61-9.09Q23.39-8.61 23.39-7.60L23.39-7.60L23.39 7.78Z"/></g>
<g transform="matrix(3.269562763076913 0 0 -0.5500103888612861 248.36521861846157 325.9811885166323)"  >
<path style="stroke: none; stroke-width: 0; stroke-dasharray: none; stroke-linecap: butt; stroke-dashoffset: 0; stroke-linejoin: miter; stroke-miterlimit: 4; fill: rgb(55,65,64); fill-rule: nonzero; opacity: 1;"  transform=" translate(-49.95, -50)" d="M 91.7 49 H 8.3 c -0.6 0 -1 0.4 -1 1 s 0.4 1 1 1 h 83.3 c 0.6 0 1 -0.4 1 -1 S 92.2 49 91.7 49 z" stroke-linecap="round" />
</g>
</svg>